<svg width="467" height="467" viewBox="0 0 467 467" fill="none" xmlns="http://www.w3.org/2000/svg">
<g opacity="0.05">
<path d="M297.95 195.191L210.387 136.816C208.738 135.716 206.82 135.084 204.84 134.989C202.859 134.893 200.89 135.337 199.142 136.274C197.395 137.211 195.934 138.604 194.917 140.306C193.9 142.008 193.364 143.955 193.367 145.938V262.688C193.364 264.67 193.9 266.617 194.917 268.319C195.934 270.021 197.395 271.414 199.142 272.351C200.89 273.288 202.859 273.732 204.84 273.636C206.82 273.541 208.738 272.909 210.387 271.809L297.95 213.434C299.455 212.435 300.689 211.08 301.544 209.488C302.398 207.897 302.845 206.119 302.845 204.312C302.845 202.506 302.398 200.728 301.544 199.137C300.689 197.545 299.455 196.19 297.95 195.191ZM215.258 242.238V166.387L272.137 204.312L215.258 242.238ZM394.031 76.6172H72.9688C66.1954 76.6172 59.6994 79.3079 54.9099 84.0974C50.1204 88.8869 47.4297 95.3829 47.4297 102.156V306.469C47.4297 313.242 50.1204 319.738 54.9099 324.528C59.6994 329.317 66.1954 332.008 72.9688 332.008H394.031C400.805 332.008 407.301 329.317 412.09 324.528C416.88 319.738 419.57 313.242 419.57 306.469V102.156C419.57 95.3829 416.88 88.8869 412.09 84.0974C407.301 79.3079 400.805 76.6172 394.031 76.6172ZM397.68 306.469C397.68 307.436 397.295 308.364 396.611 309.049C395.927 309.733 394.999 310.117 394.031 310.117H72.9688C72.0011 310.117 71.0731 309.733 70.3889 309.049C69.7047 308.364 69.3203 307.436 69.3203 306.469V102.156C69.3203 101.189 69.7047 100.261 70.3889 99.5764C71.0731 98.8922 72.0011 98.5078 72.9688 98.5078H394.031C394.999 98.5078 395.927 98.8922 396.611 99.5764C397.295 100.261 397.68 101.189 397.68 102.156V306.469ZM419.57 379.438C419.57 382.34 418.417 385.124 416.365 387.177C414.312 389.23 411.528 390.383 408.625 390.383H58.375C55.4721 390.383 52.6881 389.23 50.6355 387.177C48.5828 385.124 47.4297 382.34 47.4297 379.438C47.4297 376.535 48.5828 373.751 50.6355 371.698C52.6881 369.645 55.4721 368.492 58.375 368.492H408.625C411.528 368.492 414.312 369.645 416.365 371.698C418.417 373.751 419.57 376.535 419.57 379.438Z" fill="#0498A1"/>
</g>
</svg>
