<svg width="288" height="288" viewBox="0 0 288 288" fill="none" xmlns="http://www.w3.org/2000/svg">
<g opacity="0.05">
<path d="M183.746 120.375L129.746 84.375C128.729 83.6963 127.547 83.3067 126.325 83.2478C125.104 83.1889 123.889 83.4629 122.812 84.0405C121.734 84.6181 120.833 85.4776 120.206 86.5272C119.579 87.5769 119.248 88.7772 119.25 90V162C119.248 163.223 119.579 164.423 120.206 165.473C120.833 166.522 121.734 167.382 122.812 167.96C123.889 168.537 125.104 168.811 126.325 168.752C127.547 168.693 128.729 168.304 129.746 167.625L183.746 131.625C184.674 131.009 185.436 130.173 185.963 129.192C186.489 128.21 186.765 127.114 186.765 126C186.765 124.886 186.489 123.79 185.963 122.808C185.436 121.827 184.674 120.991 183.746 120.375ZM132.75 149.389V102.611L167.827 126L132.75 149.389ZM243 47.25H45C40.8228 47.25 36.8168 48.9094 33.8631 51.8631C30.9094 54.8168 29.25 58.8228 29.25 63V189C29.25 193.177 30.9094 197.183 33.8631 200.137C36.8168 203.091 40.8228 204.75 45 204.75H243C247.177 204.75 251.183 203.091 254.137 200.137C257.091 197.183 258.75 193.177 258.75 189V63C258.75 58.8228 257.091 54.8168 254.137 51.8631C251.183 48.9094 247.177 47.25 243 47.25ZM245.25 189C245.25 189.597 245.013 190.169 244.591 190.591C244.169 191.013 243.597 191.25 243 191.25H45C44.4033 191.25 43.831 191.013 43.409 190.591C42.9871 190.169 42.75 189.597 42.75 189V63C42.75 62.4033 42.9871 61.831 43.409 61.409C43.831 60.9871 44.4033 60.75 45 60.75H243C243.597 60.75 244.169 60.9871 244.591 61.409C245.013 61.831 245.25 62.4033 245.25 63V189ZM258.75 234C258.75 235.79 258.039 237.507 256.773 238.773C255.507 240.039 253.79 240.75 252 240.75H36C34.2098 240.75 32.4929 240.039 31.227 238.773C29.9612 237.507 29.25 235.79 29.25 234C29.25 232.21 29.9612 230.493 31.227 229.227C32.4929 227.961 34.2098 227.25 36 227.25H252C253.79 227.25 255.507 227.961 256.773 229.227C258.039 230.493 258.75 232.21 258.75 234Z" fill="#0498A1"/>
</g>
</svg>
