<svg width="350" height="350" viewBox="0 0 350 350" fill="none" xmlns="http://www.w3.org/2000/svg">
<g opacity="0.05">
<path d="M223.287 146.27L157.684 102.492C156.448 101.666 155.011 101.192 153.527 101.121C152.044 101.049 150.568 101.382 149.259 102.085C147.949 102.787 146.855 103.832 146.093 105.109C145.331 106.385 144.93 107.845 144.932 109.332V196.889C144.93 198.376 145.331 199.836 146.093 201.113C146.855 202.389 147.949 203.434 149.259 204.137C150.568 204.839 152.044 205.172 153.527 205.101C155.011 205.029 156.448 204.555 157.684 203.73L223.287 159.951C224.414 159.202 225.339 158.186 225.979 156.992C226.619 155.799 226.954 154.465 226.954 153.111C226.954 151.756 226.619 150.423 225.979 149.229C225.339 148.036 224.414 147.019 223.287 146.27ZM161.333 181.553V124.668L203.947 153.111L161.333 181.553ZM295.273 57.3447H54.7275C49.6528 57.3447 44.7859 59.3626 41.1976 62.9546C37.6092 66.5465 35.5933 71.4182 35.5933 76.4979V229.724C35.5933 234.803 37.6092 239.675 41.1976 243.267C44.7859 246.859 49.6528 248.877 54.7275 248.877H295.273C300.347 248.877 305.214 246.859 308.803 243.267C312.391 239.675 314.407 234.803 314.407 229.724V76.4979C314.407 71.4182 312.391 66.5465 308.803 62.9546C305.214 59.3626 300.347 57.3447 295.273 57.3447ZM298.006 229.724C298.006 230.449 297.718 231.145 297.205 231.658C296.693 232.171 295.998 232.46 295.273 232.46H54.7275C54.0026 232.46 53.3073 232.171 52.7947 231.658C52.282 231.145 51.9941 230.449 51.9941 229.724V76.4979C51.9941 75.7722 52.282 75.0763 52.7947 74.5632C53.3073 74.05 54.0026 73.7618 54.7275 73.7618H295.273C295.998 73.7618 296.693 74.05 297.205 74.5632C297.718 75.0763 298.006 75.7722 298.006 76.4979V229.724ZM314.407 284.447C314.407 286.624 313.543 288.712 312.005 290.251C310.467 291.791 308.381 292.655 306.206 292.655H43.7937C41.6188 292.655 39.533 291.791 37.9951 290.251C36.4572 288.712 35.5933 286.624 35.5933 284.447C35.5933 282.27 36.4572 280.182 37.9951 278.643C39.533 277.103 41.6188 276.238 43.7937 276.238H306.206C308.381 276.238 310.467 277.103 312.005 278.643C313.543 280.182 314.407 282.27 314.407 284.447Z" fill="#0498A1"/>
</g>
</svg>
