<svg width="24" height="25" viewBox="0 0 24 25" fill="none" xmlns="http://www.w3.org/2000/svg">
<path fill-rule="evenodd" clip-rule="evenodd" d="M15.6634 12.1023C15.8831 12.322 15.8831 12.6781 15.6634 12.8978L9.92853 18.6326C9.70886 18.8523 9.35276 18.8523 9.13308 18.6326L8.86788 18.3674C8.64821 18.1478 8.64821 17.7916 8.86788 17.5719L13.9398 12.5L8.86788 7.42808C8.64821 7.2084 8.64821 6.8523 8.86788 6.63263L9.13308 6.36743C9.35276 6.14775 9.70886 6.14775 9.92853 6.36743L15.6634 12.1023Z" fill="#387C81"/>
<path d="M7.64031 8.35939L11.3903 12.1094C11.4252 12.1442 11.4528 12.1856 11.4717 12.2311C11.4906 12.2766 11.5003 12.3254 11.5003 12.3747C11.5003 12.424 11.4906 12.4728 11.4717 12.5183C11.4528 12.5638 11.4252 12.6052 11.3903 12.64L7.64031 16.39C7.58787 16.4425 7.52102 16.4783 7.44824 16.4928C7.37546 16.5073 7.30001 16.4998 7.23145 16.4714C7.16289 16.443 7.10431 16.3949 7.0631 16.3332C7.0219 16.2715 6.99994 16.1989 7 16.1247L7 8.6247C6.99994 8.55049 7.0219 8.47793 7.0631 8.41621C7.10431 8.35449 7.16289 8.30638 7.23145 8.27797C7.30001 8.24956 7.37546 8.24214 7.44824 8.25663C7.52102 8.27112 7.58787 8.30689 7.64031 8.35939Z" fill="#387C81"/>
</svg>
