<svg width="320" height="439" viewBox="0 0 320 439" fill="none" xmlns="http://www.w3.org/2000/svg">
<path d="M355.736 76.2569C454.242 133.13 487.993 259.089 431.12 357.595L79.0376 967.421C22.1649 1065.93 -103.795 1099.68 -202.301 1042.8L-677.152 768.65C-775.658 711.777 -809.409 585.817 -752.536 487.311L-400.453 -122.514C-343.58 -221.02 -217.621 -254.771 -119.115 -197.898L355.736 76.2569Z" stroke="#EEF8F9" stroke-width="6"/>
<path d="M333.433 104.67C431.939 161.543 465.69 287.502 408.817 386.009L56.7344 995.834C-0.1382 1094.34 -126.098 1128.09 -224.604 1071.22L-699.455 797.063C-797.961 740.19 -831.712 614.231 -774.839 515.724L-422.756 -94.1008C-365.884 -192.607 -239.924 -226.358 -141.418 -169.485L333.433 104.67Z" stroke="#EEF8F9" stroke-width="6"/>
<path d="M311.13 133.084C409.636 189.956 443.387 315.916 386.514 414.422L34.4314 1024.25C-22.4413 1122.75 -148.401 1156.5 -246.907 1099.63L-721.758 825.476C-820.264 768.604 -854.015 642.644 -797.142 544.138L-445.059 -65.6874C-388.187 -164.194 -262.227 -197.944 -163.721 -141.072L311.13 133.084Z" stroke="#EEF8F9" stroke-width="6"/>
<path d="M288.827 161.497C387.333 218.37 421.084 344.329 364.211 442.835L12.1283 1052.66C-44.7444 1151.17 -170.704 1184.92 -269.21 1128.04L-744.061 853.89C-842.567 797.017 -876.318 671.058 -819.445 572.551L-467.362 -37.274C-410.49 -135.78 -284.53 -169.531 -186.024 -112.658L288.827 161.497Z" stroke="#EEF8F9" stroke-width="6"/>
<path d="M266.524 189.911C365.03 246.783 398.781 372.742 341.908 471.249L-10.1748 1081.07C-67.0475 1179.58 -193.007 1213.33 -291.513 1156.46L-766.364 882.303C-864.87 825.43 -898.621 699.471 -841.748 600.965L-489.665 -8.86054C-432.793 -107.367 -306.833 -141.117 -208.327 -84.2448L266.524 189.911Z" stroke="#EEF8F9" stroke-width="6"/>
<path d="M244.221 218.324C342.727 275.197 376.478 401.156 319.605 499.662L-32.4779 1109.49C-89.3506 1207.99 -215.31 1241.74 -313.816 1184.87L-788.667 910.717C-887.173 853.844 -920.924 727.884 -864.051 629.378L-511.969 19.5529C-455.096 -78.9534 -329.137 -112.704 -230.63 -55.8313L244.221 218.324Z" stroke="#EEF8F9" stroke-width="6"/>
<path d="M221.918 246.737C320.424 303.61 354.175 429.569 297.302 528.076L-54.781 1137.9C-111.654 1236.41 -237.613 1270.16 -336.119 1213.29L-810.97 939.13C-909.477 882.257 -943.227 756.298 -886.354 657.792L-534.272 47.9663C-477.399 -50.54 -351.44 -84.2905 -252.933 -27.4179L221.918 246.737Z" stroke="#EEF8F9" stroke-width="6"/>
<path d="M199.615 275.151C298.121 332.023 331.872 457.983 274.999 556.489L-77.0838 1166.31C-133.956 1264.82 -259.916 1298.57 -358.422 1241.7L-833.273 967.543C-931.779 910.671 -965.53 784.711 -908.657 686.205L-556.574 76.3797C-499.702 -22.1266 -373.742 -55.8772 -275.236 0.995445L199.615 275.151Z" stroke="#EEF8F9" stroke-width="6"/>
<path d="M177.312 303.564C275.818 360.437 309.569 486.396 252.696 584.902L-99.3868 1194.73C-156.259 1293.23 -282.219 1326.98 -380.725 1270.11L-855.576 995.957C-954.082 939.084 -987.833 813.125 -930.96 714.618L-578.878 104.793C-522.005 6.28679 -396.045 -27.4638 -297.539 29.4088L177.312 303.564Z" stroke="#EEF8F9" stroke-width="6"/>
<path d="M155.009 331.978C253.515 388.85 287.265 514.81 230.393 613.316L-121.69 1223.14C-178.563 1321.65 -304.522 1355.4 -403.028 1298.53L-877.879 1024.37C-976.386 967.497 -1010.14 841.538 -953.263 743.032L-601.181 133.207C-544.308 34.7002 -418.349 0.949628 -319.842 57.8223L155.009 331.978Z" stroke="#EEF8F9" stroke-width="6"/>
<path d="M132.706 360.391C231.212 417.263 264.962 543.223 208.09 641.729L-143.993 1251.55C-200.866 1350.06 -326.825 1383.81 -425.332 1326.94L-900.182 1052.78C-998.689 995.911 -1032.44 869.951 -975.567 771.445L-623.484 161.62C-566.611 63.1135 -440.652 29.3629 -342.145 86.2355L132.706 360.391Z" stroke="#EEF8F9" stroke-width="6"/>
<path d="M110.402 388.804C208.909 445.677 242.659 571.636 185.787 670.143L-166.296 1279.97C-223.169 1378.47 -349.128 1412.22 -447.635 1355.35L-922.485 1081.2C-1020.99 1024.32 -1054.74 898.365 -997.87 799.858L-645.787 190.033C-588.914 91.5269 -462.955 57.7763 -364.448 114.649L110.402 388.804Z" stroke="#EEF8F9" stroke-width="6"/>
<path d="M88.0993 417.218C186.606 474.09 220.356 600.05 163.484 698.556L-188.599 1308.38C-245.472 1406.89 -371.431 1440.64 -469.938 1383.77L-944.789 1109.61C-1043.29 1052.74 -1077.05 926.778 -1020.17 828.272L-668.09 218.447C-611.217 119.94 -485.258 86.1898 -386.752 143.062L88.0993 417.218Z" stroke="#EEF8F9" stroke-width="6"/>
<path d="M65.7962 445.631C164.303 502.504 198.053 628.463 141.18 726.969L-210.902 1336.79C-267.775 1435.3 -393.734 1469.05 -492.241 1412.18L-967.092 1138.02C-1065.6 1081.15 -1099.35 955.192 -1042.48 856.685L-690.393 246.86C-633.52 148.354 -507.561 114.603 -409.055 171.476L65.7962 445.631Z" stroke="#EEF8F9" stroke-width="6"/>
</svg>
