<svg width="1920" height="683" viewBox="0 0 1920 683" fill="none" xmlns="http://www.w3.org/2000/svg">
<path d="M89.7868 25.9033C-75.1199 121.112 -131.621 331.977 -36.4118 496.884L553 1517.78C648.209 1682.68 859.074 1739.18 1023.98 1643.97L1818.92 1185.02C1983.82 1089.81 2040.32 878.945 1945.11 714.038L1355.7 -306.854C1260.49 -471.76 1049.63 -528.261 884.722 -433.053L89.7868 25.9033Z" stroke="#EEF8F9" stroke-width="12"/>
<path d="M127.124 73.4692C-37.7828 168.678 -94.2836 379.543 0.925343 544.45L590.337 1565.34C685.546 1730.25 896.411 1786.75 1061.32 1691.54L1856.25 1232.58C2021.16 1137.38 2077.66 926.51 1982.45 761.604L1393.04 -259.288C1297.83 -424.195 1086.97 -480.695 922.059 -385.487L127.124 73.4692Z" stroke="#EEF8F9" stroke-width="12"/>
<path d="M164.461 121.035C-0.445809 216.244 -56.9466 427.109 38.2623 592.016L627.674 1612.91C722.883 1777.81 933.749 1834.32 1098.66 1739.11L1893.59 1280.15C2058.5 1184.94 2115 974.077 2019.79 809.17L1430.38 -211.722C1335.17 -376.628 1124.3 -433.129 959.396 -337.92L164.461 121.035Z" stroke="#EEF8F9" stroke-width="12"/>
<path d="M201.798 168.602C36.8912 263.81 -19.6098 474.675 75.5991 639.582L665.011 1660.47C760.22 1825.38 971.085 1881.88 1135.99 1786.67L1930.93 1327.72C2095.83 1232.51 2152.33 1021.64 2057.13 856.736L1467.71 -164.156C1372.5 -329.062 1161.64 -385.563 996.733 -290.354L201.798 168.602Z" stroke="#EEF8F9" stroke-width="12"/>
<path d="M239.135 216.168C74.2282 311.377 17.7272 522.242 112.936 687.148L702.348 1708.04C797.557 1872.95 1008.42 1929.45 1173.33 1834.24L1968.26 1375.28C2133.17 1280.07 2189.67 1069.21 2094.46 904.302L1505.05 -116.59C1409.84 -281.496 1198.98 -337.997 1034.07 -242.788L239.135 216.168Z" stroke="#EEF8F9" stroke-width="12"/>
<path d="M276.472 263.734C111.565 358.943 55.0642 569.808 150.273 734.715L739.685 1755.61C834.894 1920.51 1045.76 1977.01 1210.67 1881.8L2005.6 1422.85C2170.51 1327.64 2227.01 1116.77 2131.8 951.868L1542.39 -69.0234C1447.18 -233.93 1236.31 -290.431 1071.41 -195.222L276.472 263.734Z" stroke="#EEF8F9" stroke-width="12"/>
<path d="M313.809 311.3C148.902 406.509 92.4012 617.374 187.61 782.281L777.022 1803.17C872.231 1968.08 1083.1 2024.58 1248 1929.37L2042.94 1470.42C2207.84 1375.21 2264.35 1164.34 2169.14 999.434L1579.72 -21.4572C1484.52 -186.364 1273.65 -242.865 1108.74 -147.656L313.809 311.3Z" stroke="#EEF8F9" stroke-width="12"/>
<path d="M351.145 358.866C186.239 454.075 129.738 664.94 224.947 829.847L814.359 1850.74C909.568 2015.64 1120.43 2072.15 1285.34 1976.94L2080.27 1517.98C2245.18 1422.77 2301.68 1211.91 2206.47 1047L1617.06 26.1088C1521.85 -138.798 1310.99 -195.299 1146.08 -100.09L351.145 358.866Z" stroke="#EEF8F9" stroke-width="12"/>
<path d="M388.482 406.432C223.576 501.641 167.075 712.506 262.284 877.413L851.696 1898.3C946.905 2063.21 1157.77 2119.71 1322.68 2024.5L2117.61 1565.55C2282.52 1470.34 2339.02 1259.47 2243.81 1094.57L1654.4 73.6749C1559.19 -91.2318 1348.32 -147.733 1183.42 -52.5239L388.482 406.432Z" stroke="#EEF8F9" stroke-width="12"/>
<path d="M425.819 453.998C260.912 549.207 204.412 760.072 299.621 924.979L889.033 1945.87C984.242 2110.78 1195.11 2167.28 1360.01 2072.07L2154.95 1613.11C2319.86 1517.9 2376.36 1307.04 2281.15 1142.13L1691.73 121.241C1596.53 -43.6656 1385.66 -100.167 1220.75 -4.95767L425.819 453.998Z" stroke="#EEF8F9" stroke-width="12"/>
<path d="M463.156 501.564C298.25 596.773 241.749 807.638 336.958 972.545L926.37 1993.44C1021.58 2158.34 1232.44 2214.84 1397.35 2119.64L2192.29 1660.68C2357.19 1565.47 2413.69 1354.61 2318.48 1189.7L1729.07 168.807C1633.86 3.90022 1423 -52.6007 1258.09 42.6082L463.156 501.564Z" stroke="#EEF8F9" stroke-width="12"/>
<path d="M500.493 549.13C335.587 644.339 279.086 855.204 374.295 1020.11L963.707 2041C1058.92 2205.91 1269.78 2262.41 1434.69 2167.2L2229.62 1708.25C2394.53 1613.04 2451.03 1402.17 2355.82 1237.26L1766.41 216.373C1671.2 51.4664 1460.33 -5.03457 1295.43 90.1743L500.493 549.13Z" stroke="#EEF8F9" stroke-width="12"/>
<path d="M537.83 596.696C372.924 691.905 316.423 902.77 411.632 1067.68L1001.04 2088.57C1096.25 2253.48 1307.12 2309.98 1472.02 2214.77L2266.96 1755.81C2431.87 1660.6 2488.37 1449.74 2393.16 1284.83L1803.75 263.939C1708.54 99.0325 1497.67 42.5316 1332.77 137.74L537.83 596.696Z" stroke="#EEF8F9" stroke-width="12"/>
<path d="M575.167 644.262C410.261 739.471 353.76 950.337 448.969 1115.24L1038.38 2136.13C1133.59 2301.04 1344.45 2357.54 1509.36 2262.33L2304.3 1803.38C2469.2 1708.17 2525.7 1497.3 2430.49 1332.4L1841.08 311.505C1745.87 146.599 1535.01 90.0977 1370.1 185.307L575.167 644.262Z" stroke="#EEF8F9" stroke-width="12"/>
</svg>
