<svg width="374" height="308" viewBox="0 0 374 308" fill="none" xmlns="http://www.w3.org/2000/svg">
<g opacity="0.1">
<mask id="path-1-inside-1_657_618" fill="white">
<path d="M348.137 333.456C372.158 319.569 380.403 288.838 366.554 264.817L280.815 116.11C266.965 92.0892 236.265 83.8744 212.244 97.7618L96.4509 164.706C72.4299 178.594 64.1844 209.325 78.034 233.346L163.773 382.053C177.622 406.074 208.323 414.288 232.344 400.401L348.137 333.456Z"/>
<path d="M342.704 326.529C366.725 312.641 374.971 281.91 361.121 257.889L275.382 109.182C261.533 85.1614 230.833 76.9466 206.812 90.834L91.0182 157.779C66.9972 171.666 58.7517 202.397 72.6013 226.418L158.34 375.125C172.19 399.146 202.89 407.361 226.911 393.473L342.704 326.529Z"/>
<path d="M337.271 319.601C361.292 305.713 369.538 274.983 355.688 250.962L269.949 102.255C256.1 78.2336 225.4 70.0188 201.379 83.9062L85.5855 150.851C61.5645 164.738 53.319 195.469 67.1686 219.49L152.907 368.197C166.757 392.218 197.457 400.433 221.478 386.545L337.271 319.601Z"/>
<path d="M331.839 312.673C355.86 298.786 364.105 268.055 350.256 244.034L264.517 95.3267C250.667 71.3058 219.967 63.0909 195.946 76.9784L80.1528 143.923C56.1318 157.81 47.8863 188.541 61.7359 212.562L147.475 361.269C161.324 385.29 192.024 393.505 216.045 379.618L331.839 312.673Z"/>
<path d="M326.406 305.745C350.427 291.858 358.673 261.127 344.823 237.106L259.084 88.3989C245.235 64.3779 214.534 56.1631 190.513 70.0506L74.7201 136.995C50.6991 150.883 42.4536 181.613 56.3032 205.634L142.042 354.341C155.892 378.362 186.592 386.577 210.613 372.69L326.406 305.745Z"/>
<path d="M320.973 298.817C344.994 284.93 353.24 254.199 339.39 230.178L253.651 81.4711C239.802 57.4501 209.102 49.2353 185.081 63.1227L69.2874 130.067C45.2664 143.955 37.0209 174.685 50.8705 198.706L136.609 347.414C150.459 371.435 181.159 379.649 205.18 365.762L320.973 298.817Z"/>
<path d="M315.541 291.89C339.562 278.002 347.807 247.271 333.958 223.25L248.219 74.5433C234.369 50.5223 203.669 42.3075 179.648 56.1949L63.8547 123.139C39.8337 137.027 31.5882 167.758 45.4378 191.779L131.177 340.486C145.026 364.507 175.726 372.722 199.747 358.834L315.541 291.89Z"/>
<path d="M310.108 284.962C334.129 271.074 342.375 240.344 328.525 216.323L242.786 67.6155C228.936 43.5945 198.236 35.3797 174.215 49.2671L58.4221 116.212C34.4011 130.099 26.1556 160.83 40.0052 184.851L125.744 333.558C139.594 357.579 170.294 365.794 194.315 351.906L310.108 284.962Z"/>
<path d="M304.675 278.034C328.696 264.147 336.942 233.416 323.092 209.395L237.353 60.6876C223.504 36.6667 192.804 28.4519 168.783 42.3393L52.9894 109.284C28.9684 123.171 20.7229 153.902 34.5725 177.923L120.311 326.63C134.161 350.651 164.861 358.866 188.882 344.978L304.675 278.034Z"/>
<path d="M299.243 271.106C323.264 257.219 331.509 226.488 317.66 202.467L231.921 53.7598C218.071 29.7389 187.371 21.524 163.35 35.4115L47.5567 102.356C23.5357 116.243 15.2902 146.974 29.1398 170.995L114.879 319.702C128.728 343.723 159.428 351.938 183.449 338.051L299.243 271.106Z"/>
<path d="M293.81 264.178C317.831 250.291 326.076 219.56 312.227 195.539L226.488 46.832C212.638 22.8111 181.938 14.5963 157.917 28.4837L42.124 95.4282C18.103 109.316 9.85751 140.046 23.7071 164.067L109.446 312.775C123.296 336.795 153.996 345.01 178.017 331.123L293.81 264.178Z"/>
<path d="M288.377 257.251C312.398 243.363 320.644 212.632 306.794 188.611L221.055 39.9042C207.206 15.8833 176.506 7.66843 152.485 21.5559L36.6913 88.5004C12.6703 102.388 4.42481 133.119 18.2744 157.14L104.013 305.847C117.863 329.868 148.563 338.082 172.584 324.195L288.377 257.251Z"/>
<path d="M282.945 250.323C306.965 236.435 315.211 205.704 301.361 181.683L215.623 32.9764C201.773 8.95543 171.073 0.740618 147.052 14.628L31.2586 81.5726C7.2376 95.46 -1.0079 126.191 12.8417 150.212L98.5805 298.919C112.43 322.94 143.13 331.155 167.151 317.267L282.945 250.323Z"/>
<path d="M277.512 243.395C301.533 229.507 309.778 198.777 295.929 174.756L210.19 26.0486C196.34 2.02761 165.64 -6.18722 141.619 7.70021L25.8259 74.6448C1.8049 88.5322 -6.44059 119.263 7.40898 143.284L93.1478 291.991C106.997 316.012 137.698 324.227 161.718 310.339L277.512 243.395Z"/>
</mask>
<path d="M348.137 333.456C372.158 319.569 380.403 288.838 366.554 264.817L280.815 116.11C266.965 92.0892 236.265 83.8744 212.244 97.7618L96.4509 164.706C72.4299 178.594 64.1844 209.325 78.034 233.346L163.773 382.053C177.622 406.074 208.323 414.288 232.344 400.401L348.137 333.456Z" stroke="url(#paint0_linear_657_618)" stroke-width="1.51611" mask="url(#path-1-inside-1_657_618)"/>
<path d="M342.704 326.529C366.725 312.641 374.971 281.91 361.121 257.889L275.382 109.182C261.533 85.1614 230.833 76.9466 206.812 90.834L91.0182 157.779C66.9972 171.666 58.7517 202.397 72.6013 226.418L158.34 375.125C172.19 399.146 202.89 407.361 226.911 393.473L342.704 326.529Z" stroke="url(#paint1_linear_657_618)" stroke-width="1.51611" mask="url(#path-1-inside-1_657_618)"/>
<path d="M337.271 319.601C361.292 305.713 369.538 274.983 355.688 250.962L269.949 102.255C256.1 78.2336 225.4 70.0188 201.379 83.9062L85.5855 150.851C61.5645 164.738 53.319 195.469 67.1686 219.49L152.907 368.197C166.757 392.218 197.457 400.433 221.478 386.545L337.271 319.601Z" stroke="url(#paint2_linear_657_618)" stroke-width="1.51611" mask="url(#path-1-inside-1_657_618)"/>
<path d="M331.839 312.673C355.86 298.786 364.105 268.055 350.256 244.034L264.517 95.3267C250.667 71.3058 219.967 63.0909 195.946 76.9784L80.1528 143.923C56.1318 157.81 47.8863 188.541 61.7359 212.562L147.475 361.269C161.324 385.29 192.024 393.505 216.045 379.618L331.839 312.673Z" stroke="url(#paint3_linear_657_618)" stroke-width="1.51611" mask="url(#path-1-inside-1_657_618)"/>
<path d="M326.406 305.745C350.427 291.858 358.673 261.127 344.823 237.106L259.084 88.3989C245.235 64.3779 214.534 56.1631 190.513 70.0506L74.7201 136.995C50.6991 150.883 42.4536 181.613 56.3032 205.634L142.042 354.341C155.892 378.362 186.592 386.577 210.613 372.69L326.406 305.745Z" stroke="url(#paint4_linear_657_618)" stroke-width="1.51611" mask="url(#path-1-inside-1_657_618)"/>
<path d="M320.973 298.817C344.994 284.93 353.24 254.199 339.39 230.178L253.651 81.4711C239.802 57.4501 209.102 49.2353 185.081 63.1227L69.2874 130.067C45.2664 143.955 37.0209 174.685 50.8705 198.706L136.609 347.414C150.459 371.435 181.159 379.649 205.18 365.762L320.973 298.817Z" stroke="url(#paint5_linear_657_618)" stroke-width="1.51611" mask="url(#path-1-inside-1_657_618)"/>
<path d="M315.541 291.89C339.562 278.002 347.807 247.271 333.958 223.25L248.219 74.5433C234.369 50.5223 203.669 42.3075 179.648 56.1949L63.8547 123.139C39.8337 137.027 31.5882 167.758 45.4378 191.779L131.177 340.486C145.026 364.507 175.726 372.722 199.747 358.834L315.541 291.89Z" stroke="url(#paint6_linear_657_618)" stroke-width="1.51611" mask="url(#path-1-inside-1_657_618)"/>
<path d="M310.108 284.962C334.129 271.074 342.375 240.344 328.525 216.323L242.786 67.6155C228.936 43.5945 198.236 35.3797 174.215 49.2671L58.4221 116.212C34.4011 130.099 26.1556 160.83 40.0052 184.851L125.744 333.558C139.594 357.579 170.294 365.794 194.315 351.906L310.108 284.962Z" stroke="url(#paint7_linear_657_618)" stroke-width="1.51611" mask="url(#path-1-inside-1_657_618)"/>
<path d="M304.675 278.034C328.696 264.147 336.942 233.416 323.092 209.395L237.353 60.6876C223.504 36.6667 192.804 28.4519 168.783 42.3393L52.9894 109.284C28.9684 123.171 20.7229 153.902 34.5725 177.923L120.311 326.63C134.161 350.651 164.861 358.866 188.882 344.978L304.675 278.034Z" stroke="url(#paint8_linear_657_618)" stroke-width="1.51611" mask="url(#path-1-inside-1_657_618)"/>
<path d="M299.243 271.106C323.264 257.219 331.509 226.488 317.66 202.467L231.921 53.7598C218.071 29.7389 187.371 21.524 163.35 35.4115L47.5567 102.356C23.5357 116.243 15.2902 146.974 29.1398 170.995L114.879 319.702C128.728 343.723 159.428 351.938 183.449 338.051L299.243 271.106Z" stroke="url(#paint9_linear_657_618)" stroke-width="1.51611" mask="url(#path-1-inside-1_657_618)"/>
<path d="M293.81 264.178C317.831 250.291 326.076 219.56 312.227 195.539L226.488 46.832C212.638 22.8111 181.938 14.5963 157.917 28.4837L42.124 95.4282C18.103 109.316 9.85751 140.046 23.7071 164.067L109.446 312.775C123.296 336.795 153.996 345.01 178.017 331.123L293.81 264.178Z" stroke="url(#paint10_linear_657_618)" stroke-width="1.51611" mask="url(#path-1-inside-1_657_618)"/>
<path d="M288.377 257.251C312.398 243.363 320.644 212.632 306.794 188.611L221.055 39.9042C207.206 15.8833 176.506 7.66843 152.485 21.5559L36.6913 88.5004C12.6703 102.388 4.42481 133.119 18.2744 157.14L104.013 305.847C117.863 329.868 148.563 338.082 172.584 324.195L288.377 257.251Z" stroke="url(#paint11_linear_657_618)" stroke-width="1.51611" mask="url(#path-1-inside-1_657_618)"/>
<path d="M282.945 250.323C306.965 236.435 315.211 205.704 301.361 181.683L215.623 32.9764C201.773 8.95543 171.073 0.740618 147.052 14.628L31.2586 81.5726C7.2376 95.46 -1.0079 126.191 12.8417 150.212L98.5805 298.919C112.43 322.94 143.13 331.155 167.151 317.267L282.945 250.323Z" stroke="url(#paint12_linear_657_618)" stroke-width="1.51611" mask="url(#path-1-inside-1_657_618)"/>
<path d="M277.512 243.395C301.533 229.507 309.778 198.777 295.929 174.756L210.19 26.0486C196.34 2.02761 165.64 -6.18722 141.619 7.70021L25.8259 74.6448C1.8049 88.5322 -6.44059 119.263 7.40898 143.284L93.1478 291.991C106.997 316.012 137.698 324.227 161.718 310.339L277.512 243.395Z" stroke="url(#paint13_linear_657_618)" stroke-width="1.51611" mask="url(#path-1-inside-1_657_618)"/>
</g>
<defs>
<linearGradient id="paint0_linear_657_618" x1="346.405" y1="227.988" x2="204.329" y2="336.714" gradientUnits="userSpaceOnUse">
<stop stop-color="#EEF8F9"/>
<stop offset="1" stop-color="white" stop-opacity="0"/>
</linearGradient>
<linearGradient id="paint1_linear_657_618" x1="346.405" y1="227.988" x2="204.329" y2="336.714" gradientUnits="userSpaceOnUse">
<stop stop-color="#EEF8F9"/>
<stop offset="1" stop-color="white" stop-opacity="0"/>
</linearGradient>
<linearGradient id="paint2_linear_657_618" x1="346.405" y1="227.988" x2="204.329" y2="336.714" gradientUnits="userSpaceOnUse">
<stop stop-color="#EEF8F9"/>
<stop offset="1" stop-color="white" stop-opacity="0"/>
</linearGradient>
<linearGradient id="paint3_linear_657_618" x1="346.405" y1="227.988" x2="204.329" y2="336.714" gradientUnits="userSpaceOnUse">
<stop stop-color="#EEF8F9"/>
<stop offset="1" stop-color="white" stop-opacity="0"/>
</linearGradient>
<linearGradient id="paint4_linear_657_618" x1="346.405" y1="227.988" x2="204.329" y2="336.714" gradientUnits="userSpaceOnUse">
<stop stop-color="#EEF8F9"/>
<stop offset="1" stop-color="white" stop-opacity="0"/>
</linearGradient>
<linearGradient id="paint5_linear_657_618" x1="346.405" y1="227.988" x2="204.329" y2="336.714" gradientUnits="userSpaceOnUse">
<stop stop-color="#EEF8F9"/>
<stop offset="1" stop-color="white" stop-opacity="0"/>
</linearGradient>
<linearGradient id="paint6_linear_657_618" x1="346.405" y1="227.988" x2="204.329" y2="336.714" gradientUnits="userSpaceOnUse">
<stop stop-color="#EEF8F9"/>
<stop offset="1" stop-color="white" stop-opacity="0"/>
</linearGradient>
<linearGradient id="paint7_linear_657_618" x1="346.405" y1="227.988" x2="204.329" y2="336.714" gradientUnits="userSpaceOnUse">
<stop stop-color="#EEF8F9"/>
<stop offset="1" stop-color="white" stop-opacity="0"/>
</linearGradient>
<linearGradient id="paint8_linear_657_618" x1="346.405" y1="227.988" x2="204.329" y2="336.714" gradientUnits="userSpaceOnUse">
<stop stop-color="#EEF8F9"/>
<stop offset="1" stop-color="white" stop-opacity="0"/>
</linearGradient>
<linearGradient id="paint9_linear_657_618" x1="346.405" y1="227.988" x2="204.329" y2="336.714" gradientUnits="userSpaceOnUse">
<stop stop-color="#EEF8F9"/>
<stop offset="1" stop-color="white" stop-opacity="0"/>
</linearGradient>
<linearGradient id="paint10_linear_657_618" x1="346.405" y1="227.988" x2="204.329" y2="336.714" gradientUnits="userSpaceOnUse">
<stop stop-color="#EEF8F9"/>
<stop offset="1" stop-color="white" stop-opacity="0"/>
</linearGradient>
<linearGradient id="paint11_linear_657_618" x1="346.405" y1="227.988" x2="204.329" y2="336.714" gradientUnits="userSpaceOnUse">
<stop stop-color="#EEF8F9"/>
<stop offset="1" stop-color="white" stop-opacity="0"/>
</linearGradient>
<linearGradient id="paint12_linear_657_618" x1="346.405" y1="227.988" x2="204.329" y2="336.714" gradientUnits="userSpaceOnUse">
<stop stop-color="#EEF8F9"/>
<stop offset="1" stop-color="white" stop-opacity="0"/>
</linearGradient>
<linearGradient id="paint13_linear_657_618" x1="346.405" y1="227.988" x2="204.329" y2="336.714" gradientUnits="userSpaceOnUse">
<stop stop-color="#EEF8F9"/>
<stop offset="1" stop-color="white" stop-opacity="0"/>
</linearGradient>
</defs>
</svg>
