<svg width="1609" height="1537" viewBox="0 0 1609 1537" preserveAspectRatio="xMinYMin meet" fill="none" xmlns="http://www.w3.org/2000/svg">
<mask id="path-1-inside-1_657_617" fill="white">
<path d="M101.814 96.24C-2.24415 156.318 -37.8968 289.376 22.1811 393.434L394.107 1037.63C454.185 1141.69 587.243 1177.34 691.301 1117.26L1192.91 827.655C1296.97 767.577 1332.62 634.519 1272.55 530.461L900.621 -113.734C840.543 -217.792 707.485 -253.444 603.427 -193.366L101.814 96.24Z"/>
<path d="M125.374 126.255C21.316 186.333 -14.3367 319.391 45.7412 423.449L417.667 1067.64C477.745 1171.7 610.803 1207.35 714.861 1147.28L1216.47 857.67C1320.53 797.592 1356.19 664.533 1296.11 560.475L924.181 -83.7189C864.103 -187.777 731.045 -223.43 626.987 -163.352L125.374 126.255Z"/>
<path d="M148.934 156.269C44.876 216.347 9.22339 349.406 69.3013 453.464L441.227 1097.66C501.305 1201.72 634.363 1237.37 738.421 1177.29L1240.03 887.685C1344.09 827.607 1379.75 694.548 1319.67 590.49L947.741 -53.7042C887.663 -157.762 754.605 -193.415 650.547 -133.337L148.934 156.269Z"/>
<path d="M172.494 186.284C68.4361 246.362 32.7833 379.42 92.8613 483.478L464.787 1127.67C524.865 1231.73 657.923 1267.38 761.981 1207.31L1263.59 917.699C1367.65 857.621 1403.31 724.563 1343.23 620.505L971.301 -23.6894C911.224 -127.747 778.165 -163.4 674.107 -103.322L172.494 186.284Z"/>
<path d="M196.054 216.299C91.9962 276.377 56.3434 409.435 116.421 513.493L488.347 1157.69C548.425 1261.75 681.484 1297.4 785.542 1237.32L1287.15 947.714C1391.21 887.636 1426.87 754.578 1366.79 650.52L994.862 6.32535C934.784 -97.7327 801.725 -133.385 697.667 -73.3074L196.054 216.299Z"/>
<path d="M219.614 246.314C115.556 306.392 79.9035 439.45 139.981 543.508L511.907 1187.7C571.985 1291.76 705.044 1327.41 809.102 1267.34L1310.71 977.729C1414.77 917.651 1450.43 784.593 1390.35 680.535L1018.42 36.3401C958.344 -67.7179 825.285 -103.371 721.227 -43.2927L219.614 246.314Z"/>
<path d="M243.174 276.328C139.116 336.406 103.464 469.465 163.541 573.523L535.467 1217.72C595.545 1321.78 728.604 1357.43 832.662 1297.35L1334.27 1007.74C1438.33 947.666 1473.99 814.607 1413.91 710.549L1041.98 66.3549C981.904 -37.7031 848.845 -73.3558 744.787 -13.2779L243.174 276.328Z"/>
<path d="M266.734 306.343C162.676 366.421 127.023 499.479 187.101 603.538L559.027 1247.73C619.105 1351.79 752.163 1387.44 856.221 1327.36L1357.83 1037.76C1461.89 977.68 1497.55 844.622 1437.47 740.564L1065.54 96.3696C1005.46 -7.6884 872.405 -43.3411 768.347 16.7368L266.734 306.343Z"/>
<path d="M290.294 336.358C186.236 396.436 150.583 529.494 210.661 633.552L582.587 1277.75C642.665 1381.8 775.723 1417.46 879.781 1357.38L1381.39 1067.77C1485.45 1007.7 1521.11 874.637 1461.03 770.579L1089.1 126.384C1029.02 22.3264 895.965 -13.3264 791.907 46.7515L290.294 336.358Z"/>
<path d="M313.854 366.373C209.796 426.451 174.143 559.509 234.221 663.567L606.147 1307.76C666.225 1411.82 799.284 1447.47 903.342 1387.39L1404.95 1097.79C1509.01 1037.71 1544.67 904.652 1484.59 800.594L1112.66 156.399C1052.58 52.3412 919.525 16.6884 815.467 76.7663L313.854 366.373Z"/>
<path d="M337.414 396.387C233.356 456.465 197.704 589.524 257.782 693.582L629.707 1337.78C689.785 1441.83 822.844 1477.49 926.902 1417.41L1428.51 1127.8C1532.57 1067.72 1568.23 934.666 1508.15 830.608L1136.22 186.414C1076.14 82.3558 943.085 46.703 839.027 106.781L337.414 396.387Z"/>
<path d="M360.974 426.402C256.916 486.48 221.264 619.538 281.342 723.596L653.267 1367.79C713.345 1471.85 846.404 1507.5 950.462 1447.42L1452.07 1157.82C1556.13 1097.74 1591.79 964.681 1531.71 860.623L1159.78 216.429C1099.7 112.371 966.645 76.7178 862.587 136.796L360.974 426.402Z"/>
<path d="M384.534 456.417C280.476 516.495 244.824 649.553 304.902 753.611L676.827 1397.81C736.905 1501.86 869.964 1537.52 974.022 1477.44L1475.63 1187.83C1579.69 1127.75 1615.35 994.696 1555.27 890.638L1183.34 246.443C1123.26 142.385 990.205 106.733 886.147 166.811L384.534 456.417Z"/>
<path d="M408.095 486.432C304.037 546.51 268.384 679.568 328.462 783.626L700.388 1427.82C760.465 1531.88 893.524 1567.53 997.582 1507.45L1499.19 1217.85C1603.25 1157.77 1638.91 1024.71 1578.83 920.653L1206.9 276.458C1146.82 172.4 1013.77 136.747 909.708 196.825L408.095 486.432Z"/>
</mask>
<path d="M101.814 96.24C-2.24415 156.318 -37.8968 289.376 22.1811 393.434L394.107 1037.63C454.185 1141.69 587.243 1177.34 691.301 1117.26L1192.91 827.655C1296.97 767.577 1332.62 634.519 1272.55 530.461L900.621 -113.734C840.543 -217.792 707.485 -253.444 603.427 -193.366L101.814 96.24Z" stroke="url(#paint0_linear_657_617)" stroke-width="12" mask="url(#path-1-inside-1_657_617)"/>
<path d="M125.374 126.255C21.316 186.333 -14.3367 319.391 45.7412 423.449L417.667 1067.64C477.745 1171.7 610.803 1207.35 714.861 1147.28L1216.47 857.67C1320.53 797.592 1356.19 664.533 1296.11 560.475L924.181 -83.7189C864.103 -187.777 731.045 -223.43 626.987 -163.352L125.374 126.255Z" stroke="url(#paint1_linear_657_617)" stroke-width="12" mask="url(#path-1-inside-1_657_617)"/>
<path d="M148.934 156.269C44.876 216.347 9.22339 349.406 69.3013 453.464L441.227 1097.66C501.305 1201.72 634.363 1237.37 738.421 1177.29L1240.03 887.685C1344.09 827.607 1379.75 694.548 1319.67 590.49L947.741 -53.7042C887.663 -157.762 754.605 -193.415 650.547 -133.337L148.934 156.269Z" stroke="url(#paint2_linear_657_617)" stroke-width="12" mask="url(#path-1-inside-1_657_617)"/>
<path d="M172.494 186.284C68.4361 246.362 32.7833 379.42 92.8613 483.478L464.787 1127.67C524.865 1231.73 657.923 1267.38 761.981 1207.31L1263.59 917.699C1367.65 857.621 1403.31 724.563 1343.23 620.505L971.301 -23.6894C911.224 -127.747 778.165 -163.4 674.107 -103.322L172.494 186.284Z" stroke="url(#paint3_linear_657_617)" stroke-width="12" mask="url(#path-1-inside-1_657_617)"/>
<path d="M196.054 216.299C91.9962 276.377 56.3434 409.435 116.421 513.493L488.347 1157.69C548.425 1261.75 681.484 1297.4 785.542 1237.32L1287.15 947.714C1391.21 887.636 1426.87 754.578 1366.79 650.52L994.862 6.32535C934.784 -97.7327 801.725 -133.385 697.667 -73.3074L196.054 216.299Z" stroke="url(#paint4_linear_657_617)" stroke-width="12" mask="url(#path-1-inside-1_657_617)"/>
<path d="M219.614 246.314C115.556 306.392 79.9035 439.45 139.981 543.508L511.907 1187.7C571.985 1291.76 705.044 1327.41 809.102 1267.34L1310.71 977.729C1414.77 917.651 1450.43 784.593 1390.35 680.535L1018.42 36.3401C958.344 -67.7179 825.285 -103.371 721.227 -43.2927L219.614 246.314Z" stroke="url(#paint5_linear_657_617)" stroke-width="12" mask="url(#path-1-inside-1_657_617)"/>
<path d="M243.174 276.328C139.116 336.406 103.464 469.465 163.541 573.523L535.467 1217.72C595.545 1321.78 728.604 1357.43 832.662 1297.35L1334.27 1007.74C1438.33 947.666 1473.99 814.607 1413.91 710.549L1041.98 66.3549C981.904 -37.7031 848.845 -73.3558 744.787 -13.2779L243.174 276.328Z" stroke="url(#paint6_linear_657_617)" stroke-width="12" mask="url(#path-1-inside-1_657_617)"/>
<path d="M266.734 306.343C162.676 366.421 127.023 499.479 187.101 603.538L559.027 1247.73C619.105 1351.79 752.163 1387.44 856.221 1327.36L1357.83 1037.76C1461.89 977.68 1497.55 844.622 1437.47 740.564L1065.54 96.3696C1005.46 -7.6884 872.405 -43.3411 768.347 16.7368L266.734 306.343Z" stroke="url(#paint7_linear_657_617)" stroke-width="12" mask="url(#path-1-inside-1_657_617)"/>
<path d="M290.294 336.358C186.236 396.436 150.583 529.494 210.661 633.552L582.587 1277.75C642.665 1381.8 775.723 1417.46 879.781 1357.38L1381.39 1067.77C1485.45 1007.7 1521.11 874.637 1461.03 770.579L1089.1 126.384C1029.02 22.3264 895.965 -13.3264 791.907 46.7515L290.294 336.358Z" stroke="url(#paint8_linear_657_617)" stroke-width="12" mask="url(#path-1-inside-1_657_617)"/>
<path d="M313.854 366.373C209.796 426.451 174.143 559.509 234.221 663.567L606.147 1307.76C666.225 1411.82 799.284 1447.47 903.342 1387.39L1404.95 1097.79C1509.01 1037.71 1544.67 904.652 1484.59 800.594L1112.66 156.399C1052.58 52.3412 919.525 16.6884 815.467 76.7663L313.854 366.373Z" stroke="url(#paint9_linear_657_617)" stroke-width="12" mask="url(#path-1-inside-1_657_617)"/>
<path d="M337.414 396.387C233.356 456.465 197.704 589.524 257.782 693.582L629.707 1337.78C689.785 1441.83 822.844 1477.49 926.902 1417.41L1428.51 1127.8C1532.57 1067.72 1568.23 934.666 1508.15 830.608L1136.22 186.414C1076.14 82.3558 943.085 46.703 839.027 106.781L337.414 396.387Z" stroke="url(#paint10_linear_657_617)" stroke-width="12" mask="url(#path-1-inside-1_657_617)"/>
<path d="M360.974 426.402C256.916 486.48 221.264 619.538 281.342 723.596L653.267 1367.79C713.345 1471.85 846.404 1507.5 950.462 1447.42L1452.07 1157.82C1556.13 1097.74 1591.79 964.681 1531.71 860.623L1159.78 216.429C1099.7 112.371 966.645 76.7178 862.587 136.796L360.974 426.402Z" stroke="url(#paint11_linear_657_617)" stroke-width="12" mask="url(#path-1-inside-1_657_617)"/>
<path d="M384.534 456.417C280.476 516.495 244.824 649.553 304.902 753.611L676.827 1397.81C736.905 1501.86 869.964 1537.52 974.022 1477.44L1475.63 1187.83C1579.69 1127.75 1615.35 994.696 1555.27 890.638L1183.34 246.443C1123.26 142.385 990.205 106.733 886.147 166.811L384.534 456.417Z" stroke="url(#paint12_linear_657_617)" stroke-width="12" mask="url(#path-1-inside-1_657_617)"/>
<path d="M408.095 486.432C304.037 546.51 268.384 679.568 328.462 783.626L700.388 1427.82C760.465 1531.88 893.524 1567.53 997.582 1507.45L1499.19 1217.85C1603.25 1157.77 1638.91 1024.71 1578.83 920.653L1206.9 276.458C1146.82 172.4 1013.77 136.747 909.708 196.825L408.095 486.432Z" stroke="url(#paint13_linear_657_617)" stroke-width="12" mask="url(#path-1-inside-1_657_617)"/>
<defs>
<linearGradient id="paint0_linear_657_617" x1="109.59" y1="552.974" x2="724.533" y2="81.9079" gradientUnits="userSpaceOnUse">
<stop stop-color="#EEF8F9"/>
<stop offset="1" stop-color="white" stop-opacity="0"/>
</linearGradient>
<linearGradient id="paint1_linear_657_617" x1="109.59" y1="552.974" x2="724.533" y2="81.9079" gradientUnits="userSpaceOnUse">
<stop stop-color="#EEF8F9"/>
<stop offset="1" stop-color="white" stop-opacity="0"/>
</linearGradient>
<linearGradient id="paint2_linear_657_617" x1="109.59" y1="552.974" x2="724.533" y2="81.9079" gradientUnits="userSpaceOnUse">
<stop stop-color="#EEF8F9"/>
<stop offset="1" stop-color="white" stop-opacity="0"/>
</linearGradient>
<linearGradient id="paint3_linear_657_617" x1="109.59" y1="552.974" x2="724.533" y2="81.9079" gradientUnits="userSpaceOnUse">
<stop stop-color="#EEF8F9"/>
<stop offset="1" stop-color="white" stop-opacity="0"/>
</linearGradient>
<linearGradient id="paint4_linear_657_617" x1="109.59" y1="552.974" x2="724.533" y2="81.9079" gradientUnits="userSpaceOnUse">
<stop stop-color="#EEF8F9"/>
<stop offset="1" stop-color="white" stop-opacity="0"/>
</linearGradient>
<linearGradient id="paint5_linear_657_617" x1="109.59" y1="552.974" x2="724.533" y2="81.9079" gradientUnits="userSpaceOnUse">
<stop stop-color="#EEF8F9"/>
<stop offset="1" stop-color="white" stop-opacity="0"/>
</linearGradient>
<linearGradient id="paint6_linear_657_617" x1="109.59" y1="552.974" x2="724.533" y2="81.9079" gradientUnits="userSpaceOnUse">
<stop stop-color="#EEF8F9"/>
<stop offset="1" stop-color="white" stop-opacity="0"/>
</linearGradient>
<linearGradient id="paint7_linear_657_617" x1="109.59" y1="552.974" x2="724.533" y2="81.9079" gradientUnits="userSpaceOnUse">
<stop stop-color="#EEF8F9"/>
<stop offset="1" stop-color="white" stop-opacity="0"/>
</linearGradient>
<linearGradient id="paint8_linear_657_617" x1="109.59" y1="552.974" x2="724.533" y2="81.9079" gradientUnits="userSpaceOnUse">
<stop stop-color="#EEF8F9"/>
<stop offset="1" stop-color="white" stop-opacity="0"/>
</linearGradient>
<linearGradient id="paint9_linear_657_617" x1="109.59" y1="552.974" x2="724.533" y2="81.9079" gradientUnits="userSpaceOnUse">
<stop stop-color="#EEF8F9"/>
<stop offset="1" stop-color="white" stop-opacity="0"/>
</linearGradient>
<linearGradient id="paint10_linear_657_617" x1="109.59" y1="552.974" x2="724.533" y2="81.9079" gradientUnits="userSpaceOnUse">
<stop stop-color="#EEF8F9"/>
<stop offset="1" stop-color="white" stop-opacity="0"/>
</linearGradient>
<linearGradient id="paint11_linear_657_617" x1="109.59" y1="552.974" x2="724.533" y2="81.9079" gradientUnits="userSpaceOnUse">
<stop stop-color="#EEF8F9"/>
<stop offset="1" stop-color="white" stop-opacity="0"/>
</linearGradient>
<linearGradient id="paint12_linear_657_617" x1="109.59" y1="552.974" x2="724.533" y2="81.9079" gradientUnits="userSpaceOnUse">
<stop stop-color="#EEF8F9"/>
<stop offset="1" stop-color="white" stop-opacity="0"/>
</linearGradient>
<linearGradient id="paint13_linear_657_617" x1="109.59" y1="552.974" x2="724.533" y2="81.9079" gradientUnits="userSpaceOnUse">
<stop stop-color="#EEF8F9"/>
<stop offset="1" stop-color="white" stop-opacity="0"/>
</linearGradient>
</defs>
</svg>
