<svg width="320" height="386" viewBox="0 0 320 386" fill="none" xmlns="http://www.w3.org/2000/svg">
<g clip-path="url(#clip0_701_533)">
<mask id="path-1-inside-1_701_533" fill="white">
<path d="M101.814 46.24C-2.24411 106.318 -37.8968 239.376 22.1811 343.434L394.107 987.629C454.185 1091.69 587.243 1127.34 691.301 1067.26L1192.91 777.655C1296.97 717.577 1332.62 584.519 1272.55 480.461L900.621 -163.734C840.543 -267.792 707.485 -303.444 603.427 -243.366L101.814 46.24Z"/>
<path d="M125.374 76.2546C21.316 136.333 -14.3366 269.391 45.7412 373.449L417.667 1017.64C477.745 1121.7 610.803 1157.35 714.861 1097.28L1216.47 807.67C1320.53 747.592 1356.19 614.533 1296.11 510.475L924.181 -133.719C864.103 -237.777 731.045 -273.43 626.987 -213.352L125.374 76.2546Z"/>
<path d="M148.934 106.269C44.8761 166.347 9.22344 299.406 69.3013 403.464L441.227 1047.66C501.305 1151.72 634.363 1187.37 738.421 1127.29L1240.03 837.685C1344.09 777.607 1379.75 644.548 1319.67 540.49L947.741 -103.704C887.664 -207.762 754.605 -243.415 650.547 -183.337L148.934 106.269Z"/>
<path d="M172.494 136.284C68.4362 196.362 32.7834 329.42 92.8613 433.478L464.787 1077.67C524.865 1181.73 657.923 1217.38 761.981 1157.31L1263.59 867.699C1367.65 807.621 1403.31 674.563 1343.23 570.505L971.301 -73.6894C911.223 -177.747 778.165 -213.4 674.107 -153.322L172.494 136.284Z"/>
<path d="M196.054 166.299C91.9962 226.377 56.3435 359.435 116.421 463.493L488.347 1107.69C548.425 1211.75 681.484 1247.4 785.542 1187.32L1287.15 897.714C1391.21 837.636 1426.87 704.578 1366.79 600.52L994.861 -43.6747C934.784 -147.733 801.725 -183.385 697.667 -123.307L196.054 166.299Z"/>
<path d="M219.614 196.314C115.556 256.392 79.9035 389.45 139.981 493.508L511.907 1137.7C571.985 1241.76 705.044 1277.41 809.102 1217.34L1310.71 927.729C1414.77 867.651 1450.43 734.593 1390.35 630.535L1018.42 -13.6599C958.344 -117.718 825.285 -153.371 721.227 -93.2926L219.614 196.314Z"/>
<path d="M243.174 226.328C139.116 286.406 103.464 419.465 163.541 523.523L535.467 1167.72C595.545 1271.78 728.604 1307.43 832.662 1247.35L1334.27 957.744C1438.33 897.666 1473.99 764.607 1413.91 660.549L1041.98 16.3549C981.904 -87.7031 848.845 -123.356 744.787 -63.2779L243.174 226.328Z"/>
<path d="M266.734 256.343C162.676 316.421 127.023 449.479 187.101 553.538L559.027 1197.73C619.105 1301.79 752.163 1337.44 856.221 1277.36L1357.83 987.758C1461.89 927.68 1497.55 794.622 1437.47 690.564L1065.54 46.3696C1005.46 -57.6884 872.405 -93.3411 768.347 -33.2632L266.734 256.343Z"/>
<path d="M290.294 286.358C186.236 346.436 150.583 479.494 210.661 583.552L582.587 1227.75C642.665 1331.8 775.723 1367.46 879.781 1307.38L1381.39 1017.77C1485.45 957.695 1521.11 824.637 1461.03 720.579L1089.1 76.3844C1029.02 -27.6736 895.965 -63.3264 791.907 -3.24848L290.294 286.358Z"/>
<path d="M313.854 316.373C209.796 376.451 174.143 509.509 234.221 613.567L606.147 1257.76C666.225 1361.82 799.283 1397.47 903.342 1337.39L1404.95 1047.79C1509.01 987.71 1544.67 854.652 1484.59 750.594L1112.66 106.399C1052.58 2.34118 919.525 -33.3116 815.467 26.7664L313.854 316.373Z"/>
<path d="M337.414 346.387C233.356 406.465 197.704 539.524 257.782 643.582L629.707 1287.78C689.785 1391.83 822.844 1427.49 926.902 1367.41L1428.51 1077.8C1532.57 1017.72 1568.23 884.666 1508.15 780.608L1136.22 136.414C1076.14 32.3558 943.085 -3.29694 839.027 56.7809L337.414 346.387Z"/>
<path d="M360.974 376.402C256.916 436.48 221.264 569.538 281.342 673.596L653.267 1317.79C713.345 1421.85 846.404 1457.5 950.462 1397.42L1452.07 1107.82C1556.13 1047.74 1591.79 914.681 1531.71 810.623L1159.78 166.429C1099.7 62.3705 966.645 26.7178 862.587 86.7957L360.974 376.402Z"/>
<path d="M384.535 406.417C280.476 466.495 244.824 599.553 304.902 703.611L676.827 1347.81C736.905 1451.86 869.964 1487.52 974.022 1427.44L1475.63 1137.83C1579.69 1077.75 1615.35 944.696 1555.27 840.638L1183.34 196.443C1123.26 92.3853 990.206 56.7326 886.147 116.811L384.535 406.417Z"/>
<path d="M408.095 436.432C304.036 496.51 268.384 629.568 328.462 733.626L700.388 1377.82C760.465 1481.88 893.524 1517.53 997.582 1457.45L1499.19 1167.85C1603.25 1107.77 1638.91 974.711 1578.83 870.653L1206.9 226.458C1146.82 122.4 1013.77 86.7474 909.708 146.825L408.095 436.432Z"/>
</mask>
<path d="M101.814 46.24C-2.24411 106.318 -37.8968 239.376 22.1811 343.434L394.107 987.629C454.185 1091.69 587.243 1127.34 691.301 1067.26L1192.91 777.655C1296.97 717.577 1332.62 584.519 1272.55 480.461L900.621 -163.734C840.543 -267.792 707.485 -303.444 603.427 -243.366L101.814 46.24Z" stroke="url(#paint0_linear_701_533)" stroke-width="12" mask="url(#path-1-inside-1_701_533)"/>
<path d="M125.374 76.2546C21.316 136.333 -14.3366 269.391 45.7412 373.449L417.667 1017.64C477.745 1121.7 610.803 1157.35 714.861 1097.28L1216.47 807.67C1320.53 747.592 1356.19 614.533 1296.11 510.475L924.181 -133.719C864.103 -237.777 731.045 -273.43 626.987 -213.352L125.374 76.2546Z" stroke="url(#paint1_linear_701_533)" stroke-width="12" mask="url(#path-1-inside-1_701_533)"/>
<path d="M148.934 106.269C44.8761 166.347 9.22344 299.406 69.3013 403.464L441.227 1047.66C501.305 1151.72 634.363 1187.37 738.421 1127.29L1240.03 837.685C1344.09 777.607 1379.75 644.548 1319.67 540.49L947.741 -103.704C887.664 -207.762 754.605 -243.415 650.547 -183.337L148.934 106.269Z" stroke="url(#paint2_linear_701_533)" stroke-width="12" mask="url(#path-1-inside-1_701_533)"/>
<path d="M172.494 136.284C68.4362 196.362 32.7834 329.42 92.8613 433.478L464.787 1077.67C524.865 1181.73 657.923 1217.38 761.981 1157.31L1263.59 867.699C1367.65 807.621 1403.31 674.563 1343.23 570.505L971.301 -73.6894C911.223 -177.747 778.165 -213.4 674.107 -153.322L172.494 136.284Z" stroke="url(#paint3_linear_701_533)" stroke-width="12" mask="url(#path-1-inside-1_701_533)"/>
<path d="M196.054 166.299C91.9962 226.377 56.3435 359.435 116.421 463.493L488.347 1107.69C548.425 1211.75 681.484 1247.4 785.542 1187.32L1287.15 897.714C1391.21 837.636 1426.87 704.578 1366.79 600.52L994.861 -43.6747C934.784 -147.733 801.725 -183.385 697.667 -123.307L196.054 166.299Z" stroke="url(#paint4_linear_701_533)" stroke-width="12" mask="url(#path-1-inside-1_701_533)"/>
<path d="M219.614 196.314C115.556 256.392 79.9035 389.45 139.981 493.508L511.907 1137.7C571.985 1241.76 705.044 1277.41 809.102 1217.34L1310.71 927.729C1414.77 867.651 1450.43 734.593 1390.35 630.535L1018.42 -13.6599C958.344 -117.718 825.285 -153.371 721.227 -93.2926L219.614 196.314Z" stroke="url(#paint5_linear_701_533)" stroke-width="12" mask="url(#path-1-inside-1_701_533)"/>
<path d="M243.174 226.328C139.116 286.406 103.464 419.465 163.541 523.523L535.467 1167.72C595.545 1271.78 728.604 1307.43 832.662 1247.35L1334.27 957.744C1438.33 897.666 1473.99 764.607 1413.91 660.549L1041.98 16.3549C981.904 -87.7031 848.845 -123.356 744.787 -63.2779L243.174 226.328Z" stroke="url(#paint6_linear_701_533)" stroke-width="12" mask="url(#path-1-inside-1_701_533)"/>
<path d="M266.734 256.343C162.676 316.421 127.023 449.479 187.101 553.538L559.027 1197.73C619.105 1301.79 752.163 1337.44 856.221 1277.36L1357.83 987.758C1461.89 927.68 1497.55 794.622 1437.47 690.564L1065.54 46.3696C1005.46 -57.6884 872.405 -93.3411 768.347 -33.2632L266.734 256.343Z" stroke="url(#paint7_linear_701_533)" stroke-width="12" mask="url(#path-1-inside-1_701_533)"/>
<path d="M290.294 286.358C186.236 346.436 150.583 479.494 210.661 583.552L582.587 1227.75C642.665 1331.8 775.723 1367.46 879.781 1307.38L1381.39 1017.77C1485.45 957.695 1521.11 824.637 1461.03 720.579L1089.1 76.3844C1029.02 -27.6736 895.965 -63.3264 791.907 -3.24848L290.294 286.358Z" stroke="url(#paint8_linear_701_533)" stroke-width="12" mask="url(#path-1-inside-1_701_533)"/>
<path d="M313.854 316.373C209.796 376.451 174.143 509.509 234.221 613.567L606.147 1257.76C666.225 1361.82 799.283 1397.47 903.342 1337.39L1404.95 1047.79C1509.01 987.71 1544.67 854.652 1484.59 750.594L1112.66 106.399C1052.58 2.34118 919.525 -33.3116 815.467 26.7664L313.854 316.373Z" stroke="url(#paint9_linear_701_533)" stroke-width="12" mask="url(#path-1-inside-1_701_533)"/>
<path d="M337.414 346.387C233.356 406.465 197.704 539.524 257.782 643.582L629.707 1287.78C689.785 1391.83 822.844 1427.49 926.902 1367.41L1428.51 1077.8C1532.57 1017.72 1568.23 884.666 1508.15 780.608L1136.22 136.414C1076.14 32.3558 943.085 -3.29694 839.027 56.7809L337.414 346.387Z" stroke="url(#paint10_linear_701_533)" stroke-width="12" mask="url(#path-1-inside-1_701_533)"/>
<path d="M360.974 376.402C256.916 436.48 221.264 569.538 281.342 673.596L653.267 1317.79C713.345 1421.85 846.404 1457.5 950.462 1397.42L1452.07 1107.82C1556.13 1047.74 1591.79 914.681 1531.71 810.623L1159.78 166.429C1099.7 62.3705 966.645 26.7178 862.587 86.7957L360.974 376.402Z" stroke="url(#paint11_linear_701_533)" stroke-width="12" mask="url(#path-1-inside-1_701_533)"/>
<path d="M384.535 406.417C280.476 466.495 244.824 599.553 304.902 703.611L676.827 1347.81C736.905 1451.86 869.964 1487.52 974.022 1427.44L1475.63 1137.83C1579.69 1077.75 1615.35 944.696 1555.27 840.638L1183.34 196.443C1123.26 92.3853 990.206 56.7326 886.147 116.811L384.535 406.417Z" stroke="url(#paint12_linear_701_533)" stroke-width="12" mask="url(#path-1-inside-1_701_533)"/>
<path d="M408.095 436.432C304.036 496.51 268.384 629.568 328.462 733.626L700.388 1377.82C760.465 1481.88 893.524 1517.53 997.582 1457.45L1499.19 1167.85C1603.25 1107.77 1638.91 974.711 1578.83 870.653L1206.9 226.458C1146.82 122.4 1013.77 86.7474 909.708 146.825L408.095 436.432Z" stroke="url(#paint13_linear_701_533)" stroke-width="12" mask="url(#path-1-inside-1_701_533)"/>
</g>
<defs>
<linearGradient id="paint0_linear_701_533" x1="109.59" y1="502.974" x2="724.533" y2="31.9079" gradientUnits="userSpaceOnUse">
<stop stop-color="#EEF8F9"/>
<stop offset="1" stop-color="white" stop-opacity="0"/>
</linearGradient>
<linearGradient id="paint1_linear_701_533" x1="109.59" y1="502.974" x2="724.533" y2="31.9079" gradientUnits="userSpaceOnUse">
<stop stop-color="#EEF8F9"/>
<stop offset="1" stop-color="white" stop-opacity="0"/>
</linearGradient>
<linearGradient id="paint2_linear_701_533" x1="109.59" y1="502.974" x2="724.533" y2="31.9079" gradientUnits="userSpaceOnUse">
<stop stop-color="#EEF8F9"/>
<stop offset="1" stop-color="white" stop-opacity="0"/>
</linearGradient>
<linearGradient id="paint3_linear_701_533" x1="109.59" y1="502.974" x2="724.533" y2="31.9079" gradientUnits="userSpaceOnUse">
<stop stop-color="#EEF8F9"/>
<stop offset="1" stop-color="white" stop-opacity="0"/>
</linearGradient>
<linearGradient id="paint4_linear_701_533" x1="109.59" y1="502.974" x2="724.533" y2="31.9079" gradientUnits="userSpaceOnUse">
<stop stop-color="#EEF8F9"/>
<stop offset="1" stop-color="white" stop-opacity="0"/>
</linearGradient>
<linearGradient id="paint5_linear_701_533" x1="109.59" y1="502.974" x2="724.533" y2="31.9079" gradientUnits="userSpaceOnUse">
<stop stop-color="#EEF8F9"/>
<stop offset="1" stop-color="white" stop-opacity="0"/>
</linearGradient>
<linearGradient id="paint6_linear_701_533" x1="109.59" y1="502.974" x2="724.533" y2="31.9079" gradientUnits="userSpaceOnUse">
<stop stop-color="#EEF8F9"/>
<stop offset="1" stop-color="white" stop-opacity="0"/>
</linearGradient>
<linearGradient id="paint7_linear_701_533" x1="109.59" y1="502.974" x2="724.533" y2="31.9079" gradientUnits="userSpaceOnUse">
<stop stop-color="#EEF8F9"/>
<stop offset="1" stop-color="white" stop-opacity="0"/>
</linearGradient>
<linearGradient id="paint8_linear_701_533" x1="109.59" y1="502.974" x2="724.533" y2="31.9079" gradientUnits="userSpaceOnUse">
<stop stop-color="#EEF8F9"/>
<stop offset="1" stop-color="white" stop-opacity="0"/>
</linearGradient>
<linearGradient id="paint9_linear_701_533" x1="109.59" y1="502.974" x2="724.533" y2="31.9079" gradientUnits="userSpaceOnUse">
<stop stop-color="#EEF8F9"/>
<stop offset="1" stop-color="white" stop-opacity="0"/>
</linearGradient>
<linearGradient id="paint10_linear_701_533" x1="109.59" y1="502.974" x2="724.533" y2="31.9079" gradientUnits="userSpaceOnUse">
<stop stop-color="#EEF8F9"/>
<stop offset="1" stop-color="white" stop-opacity="0"/>
</linearGradient>
<linearGradient id="paint11_linear_701_533" x1="109.59" y1="502.974" x2="724.533" y2="31.9079" gradientUnits="userSpaceOnUse">
<stop stop-color="#EEF8F9"/>
<stop offset="1" stop-color="white" stop-opacity="0"/>
</linearGradient>
<linearGradient id="paint12_linear_701_533" x1="109.59" y1="502.974" x2="724.533" y2="31.9079" gradientUnits="userSpaceOnUse">
<stop stop-color="#EEF8F9"/>
<stop offset="1" stop-color="white" stop-opacity="0"/>
</linearGradient>
<linearGradient id="paint13_linear_701_533" x1="109.59" y1="502.974" x2="724.533" y2="31.9079" gradientUnits="userSpaceOnUse">
<stop stop-color="#EEF8F9"/>
<stop offset="1" stop-color="white" stop-opacity="0"/>
</linearGradient>
<clipPath id="clip0_701_533">
<rect width="320" height="386" fill="white"/>
</clipPath>
</defs>
</svg>
