<svg width="1920" height="809" viewBox="0 0 1920 809" preserveAspectRatio="xMinYMin meet" fill="none" xmlns="http://www.w3.org/2000/svg">
<mask id="path-1-inside-1_374_4185" fill="white">
<path d="M-152.498 234.386C-306.196 323.123 -358.856 519.656 -270.119 673.353L279.23 1624.85C367.967 1778.55 564.499 1831.21 718.197 1742.47L1459.1 1314.71C1612.8 1225.98 1665.46 1029.44 1576.72 875.746L1027.37 -75.753C938.633 -229.451 742.101 -282.111 588.403 -193.374L-152.498 234.386Z"/>
<path d="M-117.699 278.719C-271.397 367.456 -324.057 563.988 -235.32 717.686L314.029 1669.19C402.766 1822.88 599.298 1875.54 752.996 1786.81L1493.9 1359.05C1647.59 1270.31 1700.26 1073.78 1611.52 920.079L1062.17 -31.4203C973.432 -185.118 776.9 -237.778 623.202 -149.041L-117.699 278.719Z"/>
<path d="M-82.9 323.052C-236.598 411.789 -289.258 608.321 -200.52 762.019L348.828 1713.52C437.565 1867.22 634.098 1919.88 787.795 1831.14L1528.7 1403.38C1682.39 1314.64 1735.05 1118.11 1646.32 964.412L1096.97 12.9127C1008.23 -140.785 811.699 -193.445 658.002 -104.708L-82.9 323.052Z"/>
<path d="M-48.1008 367.385C-201.798 456.122 -254.459 652.654 -165.722 806.352L383.627 1757.85C472.364 1911.55 668.897 1964.21 822.594 1875.47L1563.5 1447.71C1717.19 1358.97 1769.85 1162.44 1681.12 1008.75L1131.77 57.2456C1043.03 -96.452 846.498 -149.112 692.8 -60.3751L-48.1008 367.385Z"/>
<path d="M-13.3016 411.718C-166.999 500.455 -219.66 696.987 -130.923 850.685L418.426 1802.18C507.163 1955.88 703.696 2008.54 857.393 1919.8L1598.29 1492.05C1751.99 1403.31 1804.65 1206.78 1715.92 1053.08L1166.57 101.579C1077.83 -52.119 881.297 -104.779 727.6 -16.042L-13.3016 411.718Z"/>
<path d="M21.4973 456.051C-132.2 544.788 -184.861 741.32 -96.1234 895.018L453.225 1846.52C541.963 2000.21 738.495 2052.88 892.192 1964.14L1633.09 1536.38C1786.79 1447.64 1839.45 1251.11 1750.71 1097.41L1201.37 145.912C1112.63 -7.78608 916.096 -60.4465 762.399 28.2909L21.4973 456.051Z"/>
<path d="M56.2963 500.383C-97.4013 589.121 -150.062 785.653 -61.3242 939.351L488.024 1890.85C576.762 2044.55 773.294 2097.21 926.992 2008.47L1667.89 1580.71C1821.59 1491.97 1874.25 1295.44 1785.51 1141.74L1236.17 190.245C1147.43 36.5469 950.895 -16.1135 797.198 72.6239L56.2963 500.383Z"/>
<path d="M91.095 544.716C-62.6026 633.454 -115.263 829.986 -26.5255 983.683L522.823 1935.18C611.56 2088.88 808.093 2141.54 961.79 2052.8L1702.69 1625.04C1856.39 1536.31 1909.05 1339.77 1820.31 1186.08L1270.96 234.577C1182.23 80.8797 985.694 28.2193 831.997 116.957L91.095 544.716Z"/>
<path d="M125.894 589.049C-27.8034 677.787 -80.4638 874.319 8.2737 1028.02L557.622 1979.52C646.359 2133.21 842.892 2185.87 996.589 2097.14L1737.49 1669.38C1891.19 1580.64 1943.85 1384.11 1855.11 1230.41L1305.76 278.91C1217.03 125.213 1020.49 72.5522 866.796 161.29L125.894 589.049Z"/>
<path d="M160.693 633.382C6.9957 722.12 -45.6646 918.652 43.0727 1072.35L592.421 2023.85C681.159 2177.55 877.691 2230.21 1031.39 2141.47L1772.29 1713.71C1925.99 1624.97 1978.65 1428.44 1889.91 1274.74L1340.56 323.243C1251.82 169.546 1055.29 116.885 901.595 205.623L160.693 633.382Z"/>
<path d="M195.492 677.715C41.7948 766.452 -10.8655 962.984 77.8719 1116.68L627.22 2068.18C715.958 2221.88 912.49 2274.54 1066.19 2185.8L1807.09 1758.04C1960.79 1669.31 2013.45 1472.77 1924.71 1319.08L1375.36 367.576C1286.62 213.878 1090.09 161.218 936.394 249.955L195.492 677.715Z"/>
<path d="M230.292 722.048C76.594 810.785 23.9337 1007.32 112.671 1161.02L662.019 2112.51C750.757 2266.21 947.289 2318.87 1100.99 2230.14L1841.89 1802.38C1995.59 1713.64 2048.25 1517.11 1959.51 1363.41L1410.16 411.909C1321.42 258.211 1124.89 205.551 971.193 294.288L230.292 722.048Z"/>
<path d="M265.091 766.381C111.393 855.118 58.7328 1051.65 147.47 1205.35L696.819 2156.85C785.556 2310.55 982.088 2363.21 1135.79 2274.47L1876.69 1846.71C2030.38 1757.97 2083.05 1561.44 1994.31 1407.74L1444.96 456.242C1356.22 302.544 1159.69 249.884 1005.99 338.621L265.091 766.381Z"/>
<path d="M299.89 810.714C146.192 899.451 93.5318 1095.98 182.269 1249.68L731.618 2201.18C820.355 2354.88 1016.89 2407.54 1170.58 2318.8L1911.49 1891.04C2065.18 1802.3 2117.84 1605.77 2029.11 1452.07L1479.76 500.575C1391.02 346.877 1194.49 294.217 1040.79 382.954L299.89 810.714Z"/>
</mask>
<path d="M-152.498 234.386C-306.196 323.123 -358.856 519.656 -270.119 673.353L279.23 1624.85C367.967 1778.55 564.499 1831.21 718.197 1742.47L1459.1 1314.71C1612.8 1225.98 1665.46 1029.44 1576.72 875.746L1027.37 -75.753C938.633 -229.451 742.101 -282.111 588.403 -193.374L-152.498 234.386Z" stroke="url(#paint0_linear_374_4185)" stroke-width="20" mask="url(#path-1-inside-1_374_4185)"/>
<path d="M-117.699 278.719C-271.397 367.456 -324.057 563.988 -235.32 717.686L314.029 1669.19C402.766 1822.88 599.298 1875.54 752.996 1786.81L1493.9 1359.05C1647.59 1270.31 1700.26 1073.78 1611.52 920.079L1062.17 -31.4203C973.432 -185.118 776.9 -237.778 623.202 -149.041L-117.699 278.719Z" stroke="url(#paint1_linear_374_4185)" stroke-width="20" mask="url(#path-1-inside-1_374_4185)"/>
<path d="M-82.9 323.052C-236.598 411.789 -289.258 608.321 -200.52 762.019L348.828 1713.52C437.565 1867.22 634.098 1919.88 787.795 1831.14L1528.7 1403.38C1682.39 1314.64 1735.05 1118.11 1646.32 964.412L1096.97 12.9127C1008.23 -140.785 811.699 -193.445 658.002 -104.708L-82.9 323.052Z" stroke="url(#paint2_linear_374_4185)" stroke-width="20" mask="url(#path-1-inside-1_374_4185)"/>
<path d="M-48.1008 367.385C-201.798 456.122 -254.459 652.654 -165.722 806.352L383.627 1757.85C472.364 1911.55 668.897 1964.21 822.594 1875.47L1563.5 1447.71C1717.19 1358.97 1769.85 1162.44 1681.12 1008.75L1131.77 57.2456C1043.03 -96.452 846.498 -149.112 692.8 -60.3751L-48.1008 367.385Z" stroke="url(#paint3_linear_374_4185)" stroke-width="20" mask="url(#path-1-inside-1_374_4185)"/>
<path d="M-13.3016 411.718C-166.999 500.455 -219.66 696.987 -130.923 850.685L418.426 1802.18C507.163 1955.88 703.696 2008.54 857.393 1919.8L1598.29 1492.05C1751.99 1403.31 1804.65 1206.78 1715.92 1053.08L1166.57 101.579C1077.83 -52.119 881.297 -104.779 727.6 -16.042L-13.3016 411.718Z" stroke="url(#paint4_linear_374_4185)" stroke-width="20" mask="url(#path-1-inside-1_374_4185)"/>
<path d="M21.4973 456.051C-132.2 544.788 -184.861 741.32 -96.1234 895.018L453.225 1846.52C541.963 2000.21 738.495 2052.88 892.192 1964.14L1633.09 1536.38C1786.79 1447.64 1839.45 1251.11 1750.71 1097.41L1201.37 145.912C1112.63 -7.78608 916.096 -60.4465 762.399 28.2909L21.4973 456.051Z" stroke="url(#paint5_linear_374_4185)" stroke-width="20" mask="url(#path-1-inside-1_374_4185)"/>
<path d="M56.2963 500.383C-97.4013 589.121 -150.062 785.653 -61.3242 939.351L488.024 1890.85C576.762 2044.55 773.294 2097.21 926.992 2008.47L1667.89 1580.71C1821.59 1491.97 1874.25 1295.44 1785.51 1141.74L1236.17 190.245C1147.43 36.5469 950.895 -16.1135 797.198 72.6239L56.2963 500.383Z" stroke="url(#paint6_linear_374_4185)" stroke-width="20" mask="url(#path-1-inside-1_374_4185)"/>
<path d="M91.095 544.716C-62.6026 633.454 -115.263 829.986 -26.5255 983.683L522.823 1935.18C611.56 2088.88 808.093 2141.54 961.79 2052.8L1702.69 1625.04C1856.39 1536.31 1909.05 1339.77 1820.31 1186.08L1270.96 234.577C1182.23 80.8797 985.694 28.2193 831.997 116.957L91.095 544.716Z" stroke="url(#paint7_linear_374_4185)" stroke-width="20" mask="url(#path-1-inside-1_374_4185)"/>
<path d="M125.894 589.049C-27.8034 677.787 -80.4638 874.319 8.2737 1028.02L557.622 1979.52C646.359 2133.21 842.892 2185.87 996.589 2097.14L1737.49 1669.38C1891.19 1580.64 1943.85 1384.11 1855.11 1230.41L1305.76 278.91C1217.03 125.213 1020.49 72.5522 866.796 161.29L125.894 589.049Z" stroke="url(#paint8_linear_374_4185)" stroke-width="20" mask="url(#path-1-inside-1_374_4185)"/>
<path d="M160.693 633.382C6.9957 722.12 -45.6646 918.652 43.0727 1072.35L592.421 2023.85C681.159 2177.55 877.691 2230.21 1031.39 2141.47L1772.29 1713.71C1925.99 1624.97 1978.65 1428.44 1889.91 1274.74L1340.56 323.243C1251.82 169.546 1055.29 116.885 901.595 205.623L160.693 633.382Z" stroke="url(#paint9_linear_374_4185)" stroke-width="20" mask="url(#path-1-inside-1_374_4185)"/>
<path d="M195.492 677.715C41.7948 766.452 -10.8655 962.984 77.8719 1116.68L627.22 2068.18C715.958 2221.88 912.49 2274.54 1066.19 2185.8L1807.09 1758.04C1960.79 1669.31 2013.45 1472.77 1924.71 1319.08L1375.36 367.576C1286.62 213.878 1090.09 161.218 936.394 249.955L195.492 677.715Z" stroke="url(#paint10_linear_374_4185)" stroke-width="20" mask="url(#path-1-inside-1_374_4185)"/>
<path d="M230.292 722.048C76.594 810.785 23.9337 1007.32 112.671 1161.02L662.019 2112.51C750.757 2266.21 947.289 2318.87 1100.99 2230.14L1841.89 1802.38C1995.59 1713.64 2048.25 1517.11 1959.51 1363.41L1410.16 411.909C1321.42 258.211 1124.89 205.551 971.193 294.288L230.292 722.048Z" stroke="url(#paint11_linear_374_4185)" stroke-width="20" mask="url(#path-1-inside-1_374_4185)"/>
<path d="M265.091 766.381C111.393 855.118 58.7328 1051.65 147.47 1205.35L696.819 2156.85C785.556 2310.55 982.088 2363.21 1135.79 2274.47L1876.69 1846.71C2030.38 1757.97 2083.05 1561.44 1994.31 1407.74L1444.96 456.242C1356.22 302.544 1159.69 249.884 1005.99 338.621L265.091 766.381Z" stroke="url(#paint12_linear_374_4185)" stroke-width="20" mask="url(#path-1-inside-1_374_4185)"/>
<path d="M299.89 810.714C146.192 899.451 93.5318 1095.98 182.269 1249.68L731.618 2201.18C820.355 2354.88 1016.89 2407.54 1170.58 2318.8L1911.49 1891.04C2065.18 1802.3 2117.84 1605.77 2029.11 1452.07L1479.76 500.575C1391.02 346.877 1194.49 294.217 1040.79 382.954L299.89 810.714Z" stroke="url(#paint13_linear_374_4185)" stroke-width="20" mask="url(#path-1-inside-1_374_4185)"/>
<defs>
<linearGradient id="paint0_linear_374_4185" x1="-141.012" y1="909" x2="767.281" y2="213.217" gradientUnits="userSpaceOnUse">
<stop stop-color="#EEF8F9"/>
<stop offset="1" stop-color="white" stop-opacity="0"/>
</linearGradient>
<linearGradient id="paint1_linear_374_4185" x1="-141.012" y1="909" x2="767.281" y2="213.217" gradientUnits="userSpaceOnUse">
<stop stop-color="#EEF8F9"/>
<stop offset="1" stop-color="white" stop-opacity="0"/>
</linearGradient>
<linearGradient id="paint2_linear_374_4185" x1="-141.012" y1="909" x2="767.281" y2="213.217" gradientUnits="userSpaceOnUse">
<stop stop-color="#EEF8F9"/>
<stop offset="1" stop-color="white" stop-opacity="0"/>
</linearGradient>
<linearGradient id="paint3_linear_374_4185" x1="-141.012" y1="909" x2="767.281" y2="213.217" gradientUnits="userSpaceOnUse">
<stop stop-color="#EEF8F9"/>
<stop offset="1" stop-color="white" stop-opacity="0"/>
</linearGradient>
<linearGradient id="paint4_linear_374_4185" x1="-141.012" y1="909" x2="767.281" y2="213.217" gradientUnits="userSpaceOnUse">
<stop stop-color="#EEF8F9"/>
<stop offset="1" stop-color="white" stop-opacity="0"/>
</linearGradient>
<linearGradient id="paint5_linear_374_4185" x1="-141.012" y1="909" x2="767.281" y2="213.217" gradientUnits="userSpaceOnUse">
<stop stop-color="#EEF8F9"/>
<stop offset="1" stop-color="white" stop-opacity="0"/>
</linearGradient>
<linearGradient id="paint6_linear_374_4185" x1="-141.012" y1="909" x2="767.281" y2="213.217" gradientUnits="userSpaceOnUse">
<stop stop-color="#EEF8F9"/>
<stop offset="1" stop-color="white" stop-opacity="0"/>
</linearGradient>
<linearGradient id="paint7_linear_374_4185" x1="-141.012" y1="909" x2="767.281" y2="213.217" gradientUnits="userSpaceOnUse">
<stop stop-color="#EEF8F9"/>
<stop offset="1" stop-color="white" stop-opacity="0"/>
</linearGradient>
<linearGradient id="paint8_linear_374_4185" x1="-141.012" y1="909" x2="767.281" y2="213.217" gradientUnits="userSpaceOnUse">
<stop stop-color="#EEF8F9"/>
<stop offset="1" stop-color="white" stop-opacity="0"/>
</linearGradient>
<linearGradient id="paint9_linear_374_4185" x1="-141.012" y1="909" x2="767.281" y2="213.217" gradientUnits="userSpaceOnUse">
<stop stop-color="#EEF8F9"/>
<stop offset="1" stop-color="white" stop-opacity="0"/>
</linearGradient>
<linearGradient id="paint10_linear_374_4185" x1="-141.012" y1="909" x2="767.281" y2="213.217" gradientUnits="userSpaceOnUse">
<stop stop-color="#EEF8F9"/>
<stop offset="1" stop-color="white" stop-opacity="0"/>
</linearGradient>
<linearGradient id="paint11_linear_374_4185" x1="-141.012" y1="909" x2="767.281" y2="213.217" gradientUnits="userSpaceOnUse">
<stop stop-color="#EEF8F9"/>
<stop offset="1" stop-color="white" stop-opacity="0"/>
</linearGradient>
<linearGradient id="paint12_linear_374_4185" x1="-141.012" y1="909" x2="767.281" y2="213.217" gradientUnits="userSpaceOnUse">
<stop stop-color="#EEF8F9"/>
<stop offset="1" stop-color="white" stop-opacity="0"/>
</linearGradient>
<linearGradient id="paint13_linear_374_4185" x1="-141.012" y1="909" x2="767.281" y2="213.217" gradientUnits="userSpaceOnUse">
<stop stop-color="#EEF8F9"/>
<stop offset="1" stop-color="white" stop-opacity="0"/>
</linearGradient>
</defs>
</svg>
