<svg width="892" height="809" viewBox="0 0 892 809" fill="none" xmlns="http://www.w3.org/2000/svg">
<mask id="path-1-inside-1_374_4183" fill="white">
<path d="M161.502 17.3858C7.80456 106.123 -44.8559 302.655 43.8814 456.353L593.23 1407.85C681.967 1561.55 878.499 1614.21 1032.2 1525.47L1773.1 1097.71C1926.8 1008.98 1979.46 812.444 1890.72 658.747L1341.37 -292.753C1252.63 -446.45 1056.1 -499.111 902.404 -410.374L161.502 17.3858Z"/>
<path d="M196.301 61.7185C42.6036 150.456 -10.0568 346.988 78.6806 500.686L628.029 1452.19C716.766 1605.88 913.298 1658.54 1067 1569.81L1807.9 1142.05C1961.6 1053.31 2014.26 856.777 1925.52 703.079L1376.17 -248.42C1287.43 -402.118 1090.9 -454.778 937.203 -366.041L196.301 61.7185Z"/>
<path d="M231.1 106.052C77.4028 194.789 24.7424 391.321 113.48 545.019L662.828 1496.52C751.565 1650.22 948.098 1702.88 1101.8 1614.14L1842.7 1186.38C1996.39 1097.64 2049.05 901.11 1960.32 747.412L1410.97 -204.087C1322.23 -357.785 1125.7 -410.445 972.002 -321.708L231.1 106.052Z"/>
<path d="M265.9 150.385C112.202 239.122 59.5414 435.654 148.279 589.352L697.627 1540.85C786.364 1694.55 982.897 1747.21 1136.59 1658.47L1877.5 1230.71C2031.19 1141.98 2083.85 945.443 1995.12 791.745L1445.77 -159.754C1357.03 -313.452 1160.5 -366.112 1006.8 -277.375L265.9 150.385Z"/>
<path d="M300.699 194.718C147.001 283.455 94.3405 479.987 183.078 633.685L732.426 1585.18C821.163 1738.88 1017.7 1791.54 1171.39 1702.8L1912.29 1275.05C2065.99 1186.31 2118.65 989.776 2029.92 836.078L1480.57 -115.421C1391.83 -269.119 1195.3 -321.779 1041.6 -233.042L300.699 194.718Z"/>
<path d="M335.498 239.05C181.8 327.788 129.14 524.32 217.877 678.018L767.225 1629.52C855.963 1783.21 1052.49 1835.88 1206.19 1747.14L1947.09 1319.38C2100.79 1230.64 2153.45 1034.11 2064.71 880.411L1515.37 -71.0883C1426.63 -224.786 1230.1 -277.446 1076.4 -188.709L335.498 239.05Z"/>
<path d="M370.297 283.383C216.599 372.121 163.939 568.653 252.676 722.351L802.024 1673.85C890.762 1827.55 1087.29 1880.21 1240.99 1791.47L1981.89 1363.71C2135.59 1274.97 2188.25 1078.44 2099.51 924.744L1550.17 -26.7553C1461.43 -180.453 1264.9 -233.113 1111.2 -144.376L370.297 283.383Z"/>
<path d="M405.095 327.716C251.398 416.454 198.737 612.986 287.475 766.683L836.823 1718.18C925.56 1871.88 1122.09 1924.54 1275.79 1835.8L2016.69 1408.04C2170.39 1319.31 2223.05 1122.77 2134.31 969.077L1584.96 17.5776C1496.23 -136.12 1299.69 -188.781 1146 -100.043L405.095 327.716Z"/>
<path d="M439.894 372.049C286.197 460.787 233.536 657.319 322.274 811.016L871.622 1762.52C960.359 1916.21 1156.89 1968.87 1310.59 1880.14L2051.49 1452.38C2205.19 1363.64 2257.85 1167.11 2169.11 1013.41L1619.76 61.9105C1531.03 -91.7871 1334.49 -144.448 1180.8 -55.7103L439.894 372.049Z"/>
<path d="M474.694 416.382C320.996 505.12 268.336 701.652 357.073 855.349L906.421 1806.85C995.159 1960.55 1191.69 2013.21 1345.39 1924.47L2086.29 1496.71C2239.99 1407.97 2292.65 1211.44 2203.91 1057.74L1654.56 106.244C1565.83 -47.4541 1369.29 -100.115 1215.6 -11.3773L474.694 416.382Z"/>
<path d="M509.493 460.715C355.795 549.452 303.135 745.984 391.872 899.682L941.22 1851.18C1029.96 2004.88 1226.49 2057.54 1380.19 1968.8L2121.09 1541.04C2274.79 1452.31 2327.45 1255.77 2238.71 1102.08L1689.36 150.576C1600.62 -3.12142 1404.09 -55.7819 1250.39 32.9555L509.493 460.715Z"/>
<path d="M544.292 505.048C390.594 593.785 337.934 790.317 426.671 944.015L976.019 1895.51C1064.76 2049.21 1261.29 2101.87 1414.99 2013.14L2155.89 1585.38C2309.59 1496.64 2362.25 1300.11 2273.51 1146.41L1724.16 194.909C1635.42 41.2116 1438.89 -11.4489 1285.19 77.2884L544.292 505.048Z"/>
<path d="M579.091 549.381C425.393 638.118 372.733 834.65 461.47 988.348L1010.82 1939.85C1099.56 2093.55 1296.09 2146.21 1449.79 2057.47L2190.69 1629.71C2344.38 1540.97 2397.05 1344.44 2308.31 1190.74L1758.96 239.242C1670.22 85.5445 1473.69 32.8841 1319.99 121.621L579.091 549.381Z"/>
<path d="M613.89 593.714C460.192 682.451 407.532 878.983 496.269 1032.68L1045.62 1984.18C1134.36 2137.88 1330.89 2190.54 1484.58 2101.8L2225.49 1674.04C2379.18 1585.3 2431.84 1388.77 2343.11 1235.07L1793.76 283.575C1705.02 129.878 1508.49 77.217 1354.79 165.954L613.89 593.714Z"/>
</mask>
<path d="M161.502 17.3858C7.80456 106.123 -44.8559 302.655 43.8814 456.353L593.23 1407.85C681.967 1561.55 878.499 1614.21 1032.2 1525.47L1773.1 1097.71C1926.8 1008.98 1979.46 812.444 1890.72 658.747L1341.37 -292.753C1252.63 -446.45 1056.1 -499.111 902.404 -410.374L161.502 17.3858Z" stroke="url(#paint0_linear_374_4183)" stroke-width="20" mask="url(#path-1-inside-1_374_4183)"/>
<path d="M196.301 61.7185C42.6036 150.456 -10.0568 346.988 78.6806 500.686L628.029 1452.19C716.766 1605.88 913.298 1658.54 1067 1569.81L1807.9 1142.05C1961.6 1053.31 2014.26 856.777 1925.52 703.079L1376.17 -248.42C1287.43 -402.118 1090.9 -454.778 937.203 -366.041L196.301 61.7185Z" stroke="url(#paint1_linear_374_4183)" stroke-width="20" mask="url(#path-1-inside-1_374_4183)"/>
<path d="M231.1 106.052C77.4028 194.789 24.7424 391.321 113.48 545.019L662.828 1496.52C751.565 1650.22 948.098 1702.88 1101.8 1614.14L1842.7 1186.38C1996.39 1097.64 2049.05 901.11 1960.32 747.412L1410.97 -204.087C1322.23 -357.785 1125.7 -410.445 972.002 -321.708L231.1 106.052Z" stroke="url(#paint2_linear_374_4183)" stroke-width="20" mask="url(#path-1-inside-1_374_4183)"/>
<path d="M265.9 150.385C112.202 239.122 59.5414 435.654 148.279 589.352L697.627 1540.85C786.364 1694.55 982.897 1747.21 1136.59 1658.47L1877.5 1230.71C2031.19 1141.98 2083.85 945.443 1995.12 791.745L1445.77 -159.754C1357.03 -313.452 1160.5 -366.112 1006.8 -277.375L265.9 150.385Z" stroke="url(#paint3_linear_374_4183)" stroke-width="20" mask="url(#path-1-inside-1_374_4183)"/>
<path d="M300.699 194.718C147.001 283.455 94.3405 479.987 183.078 633.685L732.426 1585.18C821.163 1738.88 1017.7 1791.54 1171.39 1702.8L1912.29 1275.05C2065.99 1186.31 2118.65 989.776 2029.92 836.078L1480.57 -115.421C1391.83 -269.119 1195.3 -321.779 1041.6 -233.042L300.699 194.718Z" stroke="url(#paint4_linear_374_4183)" stroke-width="20" mask="url(#path-1-inside-1_374_4183)"/>
<path d="M335.498 239.05C181.8 327.788 129.14 524.32 217.877 678.018L767.225 1629.52C855.963 1783.21 1052.49 1835.88 1206.19 1747.14L1947.09 1319.38C2100.79 1230.64 2153.45 1034.11 2064.71 880.411L1515.37 -71.0883C1426.63 -224.786 1230.1 -277.446 1076.4 -188.709L335.498 239.05Z" stroke="url(#paint5_linear_374_4183)" stroke-width="20" mask="url(#path-1-inside-1_374_4183)"/>
<path d="M370.297 283.383C216.599 372.121 163.939 568.653 252.676 722.351L802.024 1673.85C890.762 1827.55 1087.29 1880.21 1240.99 1791.47L1981.89 1363.71C2135.59 1274.97 2188.25 1078.44 2099.51 924.744L1550.17 -26.7553C1461.43 -180.453 1264.9 -233.113 1111.2 -144.376L370.297 283.383Z" stroke="url(#paint6_linear_374_4183)" stroke-width="20" mask="url(#path-1-inside-1_374_4183)"/>
<path d="M405.095 327.716C251.398 416.454 198.737 612.986 287.475 766.683L836.823 1718.18C925.56 1871.88 1122.09 1924.54 1275.79 1835.8L2016.69 1408.04C2170.39 1319.31 2223.05 1122.77 2134.31 969.077L1584.96 17.5776C1496.23 -136.12 1299.69 -188.781 1146 -100.043L405.095 327.716Z" stroke="url(#paint7_linear_374_4183)" stroke-width="20" mask="url(#path-1-inside-1_374_4183)"/>
<path d="M439.894 372.049C286.197 460.787 233.536 657.319 322.274 811.016L871.622 1762.52C960.359 1916.21 1156.89 1968.87 1310.59 1880.14L2051.49 1452.38C2205.19 1363.64 2257.85 1167.11 2169.11 1013.41L1619.76 61.9105C1531.03 -91.7871 1334.49 -144.448 1180.8 -55.7103L439.894 372.049Z" stroke="url(#paint8_linear_374_4183)" stroke-width="20" mask="url(#path-1-inside-1_374_4183)"/>
<path d="M474.694 416.382C320.996 505.12 268.336 701.652 357.073 855.349L906.421 1806.85C995.159 1960.55 1191.69 2013.21 1345.39 1924.47L2086.29 1496.71C2239.99 1407.97 2292.65 1211.44 2203.91 1057.74L1654.56 106.244C1565.83 -47.4541 1369.29 -100.115 1215.6 -11.3773L474.694 416.382Z" stroke="url(#paint9_linear_374_4183)" stroke-width="20" mask="url(#path-1-inside-1_374_4183)"/>
<path d="M509.493 460.715C355.795 549.452 303.135 745.984 391.872 899.682L941.22 1851.18C1029.96 2004.88 1226.49 2057.54 1380.19 1968.8L2121.09 1541.04C2274.79 1452.31 2327.45 1255.77 2238.71 1102.08L1689.36 150.576C1600.62 -3.12142 1404.09 -55.7819 1250.39 32.9555L509.493 460.715Z" stroke="url(#paint10_linear_374_4183)" stroke-width="20" mask="url(#path-1-inside-1_374_4183)"/>
<path d="M544.292 505.048C390.594 593.785 337.934 790.317 426.671 944.015L976.019 1895.51C1064.76 2049.21 1261.29 2101.87 1414.99 2013.14L2155.89 1585.38C2309.59 1496.64 2362.25 1300.11 2273.51 1146.41L1724.16 194.909C1635.42 41.2116 1438.89 -11.4489 1285.19 77.2884L544.292 505.048Z" stroke="url(#paint11_linear_374_4183)" stroke-width="20" mask="url(#path-1-inside-1_374_4183)"/>
<path d="M579.091 549.381C425.393 638.118 372.733 834.65 461.47 988.348L1010.82 1939.85C1099.56 2093.55 1296.09 2146.21 1449.79 2057.47L2190.69 1629.71C2344.38 1540.97 2397.05 1344.44 2308.31 1190.74L1758.96 239.242C1670.22 85.5445 1473.69 32.8841 1319.99 121.621L579.091 549.381Z" stroke="url(#paint12_linear_374_4183)" stroke-width="20" mask="url(#path-1-inside-1_374_4183)"/>
<path d="M613.89 593.714C460.192 682.451 407.532 878.983 496.269 1032.68L1045.62 1984.18C1134.36 2137.88 1330.89 2190.54 1484.58 2101.8L2225.49 1674.04C2379.18 1585.3 2431.84 1388.77 2343.11 1235.07L1793.76 283.575C1705.02 129.878 1508.49 77.217 1354.79 165.954L613.89 593.714Z" stroke="url(#paint13_linear_374_4183)" stroke-width="20" mask="url(#path-1-inside-1_374_4183)"/>
<defs>
<linearGradient id="paint0_linear_374_4183" x1="172.988" y1="692" x2="1081.28" y2="-3.78305" gradientUnits="userSpaceOnUse">
<stop stop-color="#EEF8F9"/>
<stop offset="1" stop-color="white" stop-opacity="0"/>
</linearGradient>
<linearGradient id="paint1_linear_374_4183" x1="172.988" y1="692" x2="1081.28" y2="-3.78305" gradientUnits="userSpaceOnUse">
<stop stop-color="#EEF8F9"/>
<stop offset="1" stop-color="white" stop-opacity="0"/>
</linearGradient>
<linearGradient id="paint2_linear_374_4183" x1="172.988" y1="692" x2="1081.28" y2="-3.78305" gradientUnits="userSpaceOnUse">
<stop stop-color="#EEF8F9"/>
<stop offset="1" stop-color="white" stop-opacity="0"/>
</linearGradient>
<linearGradient id="paint3_linear_374_4183" x1="172.988" y1="692" x2="1081.28" y2="-3.78305" gradientUnits="userSpaceOnUse">
<stop stop-color="#EEF8F9"/>
<stop offset="1" stop-color="white" stop-opacity="0"/>
</linearGradient>
<linearGradient id="paint4_linear_374_4183" x1="172.988" y1="692" x2="1081.28" y2="-3.78305" gradientUnits="userSpaceOnUse">
<stop stop-color="#EEF8F9"/>
<stop offset="1" stop-color="white" stop-opacity="0"/>
</linearGradient>
<linearGradient id="paint5_linear_374_4183" x1="172.988" y1="692" x2="1081.28" y2="-3.78305" gradientUnits="userSpaceOnUse">
<stop stop-color="#EEF8F9"/>
<stop offset="1" stop-color="white" stop-opacity="0"/>
</linearGradient>
<linearGradient id="paint6_linear_374_4183" x1="172.988" y1="692" x2="1081.28" y2="-3.78305" gradientUnits="userSpaceOnUse">
<stop stop-color="#EEF8F9"/>
<stop offset="1" stop-color="white" stop-opacity="0"/>
</linearGradient>
<linearGradient id="paint7_linear_374_4183" x1="172.988" y1="692" x2="1081.28" y2="-3.78305" gradientUnits="userSpaceOnUse">
<stop stop-color="#EEF8F9"/>
<stop offset="1" stop-color="white" stop-opacity="0"/>
</linearGradient>
<linearGradient id="paint8_linear_374_4183" x1="172.988" y1="692" x2="1081.28" y2="-3.78305" gradientUnits="userSpaceOnUse">
<stop stop-color="#EEF8F9"/>
<stop offset="1" stop-color="white" stop-opacity="0"/>
</linearGradient>
<linearGradient id="paint9_linear_374_4183" x1="172.988" y1="692" x2="1081.28" y2="-3.78305" gradientUnits="userSpaceOnUse">
<stop stop-color="#EEF8F9"/>
<stop offset="1" stop-color="white" stop-opacity="0"/>
</linearGradient>
<linearGradient id="paint10_linear_374_4183" x1="172.988" y1="692" x2="1081.28" y2="-3.78305" gradientUnits="userSpaceOnUse">
<stop stop-color="#EEF8F9"/>
<stop offset="1" stop-color="white" stop-opacity="0"/>
</linearGradient>
<linearGradient id="paint11_linear_374_4183" x1="172.988" y1="692" x2="1081.28" y2="-3.78305" gradientUnits="userSpaceOnUse">
<stop stop-color="#EEF8F9"/>
<stop offset="1" stop-color="white" stop-opacity="0"/>
</linearGradient>
<linearGradient id="paint12_linear_374_4183" x1="172.988" y1="692" x2="1081.28" y2="-3.78305" gradientUnits="userSpaceOnUse">
<stop stop-color="#EEF8F9"/>
<stop offset="1" stop-color="white" stop-opacity="0"/>
</linearGradient>
<linearGradient id="paint13_linear_374_4183" x1="172.988" y1="692" x2="1081.28" y2="-3.78305" gradientUnits="userSpaceOnUse">
<stop stop-color="#EEF8F9"/>
<stop offset="1" stop-color="white" stop-opacity="0"/>
</linearGradient>
</defs>
</svg>
