<svg width="1616" height="1760" viewBox="0 0 1616 1760" fill="none" xmlns="http://www.w3.org/2000/svg">
<g opacity="0.1">
<mask id="path-1-inside-1_752_778" fill="white">
<path d="M1506.2 1440.85C1610.25 1380.77 1645.91 1247.71 1585.83 1143.65L1213.9 499.458C1153.82 395.4 1020.77 359.748 916.708 419.826L415.095 709.432C311.037 769.51 275.384 902.568 335.462 1006.63L707.387 1650.82C767.465 1754.88 900.524 1790.53 1004.58 1730.45L1506.2 1440.85Z"/>
<path d="M1482.63 1410.83C1586.69 1350.75 1622.35 1217.7 1562.27 1113.64L1190.34 469.444C1130.26 365.386 997.206 329.733 893.148 389.811L391.535 679.417C287.477 739.495 251.824 872.554 311.902 976.612L683.827 1620.81C743.905 1724.86 876.964 1760.52 981.022 1700.44L1482.63 1410.83Z"/>
<path d="M1459.07 1380.82C1563.13 1320.74 1598.79 1187.68 1538.71 1083.62L1166.78 439.429C1106.7 335.371 973.646 299.718 869.588 359.796L367.975 649.403C263.916 709.48 228.264 842.539 288.342 946.597L660.267 1590.79C720.345 1694.85 853.404 1730.5 957.462 1670.42L1459.07 1380.82Z"/>
<path d="M1435.51 1350.8C1539.57 1290.73 1575.23 1157.67 1515.15 1053.61L1143.22 409.414C1083.14 305.356 950.086 269.703 846.028 329.781L344.414 619.388C240.356 679.466 204.704 812.524 264.782 916.582L636.707 1560.78C696.785 1664.83 829.844 1700.49 933.902 1640.41L1435.51 1350.8Z"/>
<path d="M1411.95 1320.79C1516.01 1260.71 1551.67 1127.65 1491.59 1023.59L1119.66 379.399C1059.58 275.341 926.526 239.689 822.467 299.767L320.854 589.373C216.796 649.451 181.144 782.509 241.222 886.567L613.147 1530.76C673.225 1634.82 806.284 1670.47 910.342 1610.39L1411.95 1320.79Z"/>
<path d="M1388.39 1290.77C1492.45 1230.7 1528.11 1097.64 1468.03 993.579L1096.1 349.385C1036.02 245.327 902.966 209.674 798.907 269.752L297.294 559.358C193.236 619.436 157.584 752.494 217.661 856.552L589.587 1500.75C649.665 1604.81 782.723 1640.46 886.781 1580.38L1388.39 1290.77Z"/>
<path d="M1364.83 1260.76C1468.89 1200.68 1504.55 1067.62 1444.47 963.564L1072.54 319.37C1012.46 215.312 879.405 179.659 775.347 239.737L273.734 529.343C169.676 589.421 134.024 722.48 194.101 826.538L566.027 1470.73C626.105 1574.79 759.163 1610.44 863.221 1550.37L1364.83 1260.76Z"/>
<path d="M1341.27 1230.74C1445.33 1170.67 1480.99 1037.61 1420.91 933.55L1048.98 289.355C988.904 185.297 855.846 149.644 751.788 209.722L250.175 499.329C146.116 559.407 110.464 692.465 170.542 796.523L542.467 1440.72C602.545 1544.78 735.604 1580.43 839.662 1520.35L1341.27 1230.74Z"/>
<path d="M1317.71 1200.73C1421.77 1140.65 1457.43 1007.59 1397.35 903.535L1025.42 259.34C965.344 155.282 832.286 119.63 728.228 179.708L226.614 469.314C122.556 529.392 86.9037 662.45 146.982 766.508L518.907 1410.7C578.985 1514.76 712.044 1550.41 816.102 1490.34L1317.71 1200.73Z"/>
<path d="M1294.15 1170.71C1398.21 1110.64 1433.87 977.578 1373.79 873.52L1001.86 229.326C941.784 125.268 808.726 89.6148 704.668 149.693L203.054 439.299C98.9963 499.377 63.3436 632.435 123.422 736.493L495.347 1380.69C555.425 1484.75 688.484 1520.4 792.542 1460.32L1294.15 1170.71Z"/>
<path d="M1270.59 1140.7C1374.65 1080.62 1410.31 947.564 1350.23 843.506L978.302 199.311C918.224 95.2529 785.165 59.6002 681.107 119.678L179.494 409.284C75.4362 469.362 39.7835 602.421 99.8614 706.479L471.787 1350.67C531.865 1454.73 664.923 1490.38 768.981 1430.31L1270.59 1140.7Z"/>
<path d="M1247.03 1110.69C1351.09 1050.61 1386.75 917.549 1326.67 813.491L954.742 169.296C894.664 65.2382 761.605 29.5854 657.547 89.6633L155.934 379.27C51.8762 439.348 16.2235 572.406 76.3014 676.464L448.227 1320.66C508.305 1424.72 641.363 1460.37 745.421 1400.29L1247.03 1110.69Z"/>
<path d="M1223.47 1080.67C1327.53 1020.59 1363.19 887.534 1303.11 783.476L931.182 139.281C871.104 35.2234 738.045 -0.429308 633.987 59.6486L132.374 349.255C28.3161 409.333 -7.3366 542.391 52.7413 646.449L424.667 1290.64C484.745 1394.7 617.803 1430.35 721.861 1370.28L1223.47 1080.67Z"/>
<path d="M1199.91 1050.66C1303.97 990.578 1339.63 857.519 1279.55 753.461L907.622 109.267C847.544 5.20869 714.485 -30.4441 610.427 29.6338L108.814 319.24C4.75608 379.318 -30.8966 512.376 29.1813 616.434L401.107 1260.63C461.185 1364.69 594.243 1400.34 698.301 1340.26L1199.91 1050.66Z"/>
</mask>
<path d="M1506.2 1440.85C1610.25 1380.77 1645.91 1247.71 1585.83 1143.65L1213.9 499.458C1153.82 395.4 1020.77 359.748 916.708 419.826L415.095 709.432C311.037 769.51 275.384 902.568 335.462 1006.63L707.387 1650.82C767.465 1754.88 900.524 1790.53 1004.58 1730.45L1506.2 1440.85Z" stroke="white" stroke-width="12" mask="url(#path-1-inside-1_752_778)"/>
<path d="M1482.63 1410.83C1586.69 1350.75 1622.35 1217.7 1562.27 1113.64L1190.34 469.444C1130.26 365.386 997.206 329.733 893.148 389.811L391.535 679.417C287.477 739.495 251.824 872.554 311.902 976.612L683.827 1620.81C743.905 1724.86 876.964 1760.52 981.022 1700.44L1482.63 1410.83Z" stroke="white" stroke-width="12" mask="url(#path-1-inside-1_752_778)"/>
<path d="M1459.07 1380.82C1563.13 1320.74 1598.79 1187.68 1538.71 1083.62L1166.78 439.429C1106.7 335.371 973.646 299.718 869.588 359.796L367.975 649.403C263.916 709.48 228.264 842.539 288.342 946.597L660.267 1590.79C720.345 1694.85 853.404 1730.5 957.462 1670.42L1459.07 1380.82Z" stroke="white" stroke-width="12" mask="url(#path-1-inside-1_752_778)"/>
<path d="M1435.51 1350.8C1539.57 1290.73 1575.23 1157.67 1515.15 1053.61L1143.22 409.414C1083.14 305.356 950.086 269.703 846.028 329.781L344.414 619.388C240.356 679.466 204.704 812.524 264.782 916.582L636.707 1560.78C696.785 1664.83 829.844 1700.49 933.902 1640.41L1435.51 1350.8Z" stroke="white" stroke-width="12" mask="url(#path-1-inside-1_752_778)"/>
<path d="M1411.95 1320.79C1516.01 1260.71 1551.67 1127.65 1491.59 1023.59L1119.66 379.399C1059.58 275.341 926.526 239.689 822.467 299.767L320.854 589.373C216.796 649.451 181.144 782.509 241.222 886.567L613.147 1530.76C673.225 1634.82 806.284 1670.47 910.342 1610.39L1411.95 1320.79Z" stroke="white" stroke-width="12" mask="url(#path-1-inside-1_752_778)"/>
<path d="M1388.39 1290.77C1492.45 1230.7 1528.11 1097.64 1468.03 993.579L1096.1 349.385C1036.02 245.327 902.966 209.674 798.907 269.752L297.294 559.358C193.236 619.436 157.584 752.494 217.661 856.552L589.587 1500.75C649.665 1604.81 782.723 1640.46 886.781 1580.38L1388.39 1290.77Z" stroke="white" stroke-width="12" mask="url(#path-1-inside-1_752_778)"/>
<path d="M1364.83 1260.76C1468.89 1200.68 1504.55 1067.62 1444.47 963.564L1072.54 319.37C1012.46 215.312 879.405 179.659 775.347 239.737L273.734 529.343C169.676 589.421 134.024 722.48 194.101 826.538L566.027 1470.73C626.105 1574.79 759.163 1610.44 863.221 1550.37L1364.83 1260.76Z" stroke="white" stroke-width="12" mask="url(#path-1-inside-1_752_778)"/>
<path d="M1341.27 1230.74C1445.33 1170.67 1480.99 1037.61 1420.91 933.55L1048.98 289.355C988.904 185.297 855.846 149.644 751.788 209.722L250.175 499.329C146.116 559.407 110.464 692.465 170.542 796.523L542.467 1440.72C602.545 1544.78 735.604 1580.43 839.662 1520.35L1341.27 1230.74Z" stroke="white" stroke-width="12" mask="url(#path-1-inside-1_752_778)"/>
<path d="M1317.71 1200.73C1421.77 1140.65 1457.43 1007.59 1397.35 903.535L1025.42 259.34C965.344 155.282 832.286 119.63 728.228 179.708L226.614 469.314C122.556 529.392 86.9037 662.45 146.982 766.508L518.907 1410.7C578.985 1514.76 712.044 1550.41 816.102 1490.34L1317.71 1200.73Z" stroke="white" stroke-width="12" mask="url(#path-1-inside-1_752_778)"/>
<path d="M1294.15 1170.71C1398.21 1110.64 1433.87 977.578 1373.79 873.52L1001.86 229.326C941.784 125.268 808.726 89.6148 704.668 149.693L203.054 439.299C98.9963 499.377 63.3436 632.435 123.422 736.493L495.347 1380.69C555.425 1484.75 688.484 1520.4 792.542 1460.32L1294.15 1170.71Z" stroke="white" stroke-width="12" mask="url(#path-1-inside-1_752_778)"/>
<path d="M1270.59 1140.7C1374.65 1080.62 1410.31 947.564 1350.23 843.506L978.302 199.311C918.224 95.2529 785.165 59.6002 681.107 119.678L179.494 409.284C75.4362 469.362 39.7835 602.421 99.8614 706.479L471.787 1350.67C531.865 1454.73 664.923 1490.38 768.981 1430.31L1270.59 1140.7Z" stroke="white" stroke-width="12" mask="url(#path-1-inside-1_752_778)"/>
<path d="M1247.03 1110.69C1351.09 1050.61 1386.75 917.549 1326.67 813.491L954.742 169.296C894.664 65.2382 761.605 29.5854 657.547 89.6633L155.934 379.27C51.8762 439.348 16.2235 572.406 76.3014 676.464L448.227 1320.66C508.305 1424.72 641.363 1460.37 745.421 1400.29L1247.03 1110.69Z" stroke="white" stroke-width="12" mask="url(#path-1-inside-1_752_778)"/>
<path d="M1223.47 1080.67C1327.53 1020.59 1363.19 887.534 1303.11 783.476L931.182 139.281C871.104 35.2234 738.045 -0.429308 633.987 59.6486L132.374 349.255C28.3161 409.333 -7.3366 542.391 52.7413 646.449L424.667 1290.64C484.745 1394.7 617.803 1430.35 721.861 1370.28L1223.47 1080.67Z" stroke="white" stroke-width="12" mask="url(#path-1-inside-1_752_778)"/>
<path d="M1199.91 1050.66C1303.97 990.578 1339.63 857.519 1279.55 753.461L907.622 109.267C847.544 5.20869 714.485 -30.4441 610.427 29.6338L108.814 319.24C4.75608 379.318 -30.8966 512.376 29.1813 616.434L401.107 1260.63C461.185 1364.69 594.243 1400.34 698.301 1340.26L1199.91 1050.66Z" stroke="white" stroke-width="12" mask="url(#path-1-inside-1_752_778)"/>
</g>
</svg>
