<svg width="172" height="653" viewBox="0 0 172 653" fill="none" xmlns="http://www.w3.org/2000/svg">
<path d="M-704.401 724.064C-764.72 689.238 -785.387 612.108 -750.562 551.789L-534.967 178.368C-500.142 118.048 -423.012 97.3815 -362.692 132.207L-71.9217 300.083C-11.6023 334.909 9.0645 412.039 -25.7609 472.358L-241.356 845.779C-276.181 906.099 -353.311 926.765 -413.631 891.94L-704.401 724.064Z" stroke="#EEF8F9" stroke-width="6"/>
<path d="M-690.744 706.665C-751.063 671.84 -771.73 594.709 -736.905 534.39L-521.31 160.969C-486.485 100.65 -409.355 79.9829 -349.035 114.808L-58.2646 282.685C2.05477 317.51 22.7216 394.64 -12.1038 454.96L-227.698 828.38C-262.524 888.7 -339.654 909.367 -399.973 874.541L-690.744 706.665Z" stroke="#EEF8F9" stroke-width="6"/>
<path d="M-677.087 689.266C-737.406 654.441 -758.073 577.311 -723.248 516.991L-507.653 143.57C-472.828 83.251 -395.697 62.5842 -335.378 97.4096L-44.6075 265.286C15.7119 300.111 36.3787 377.242 1.55326 437.561L-214.041 810.982C-248.867 871.301 -325.997 891.968 -386.316 857.143L-677.087 689.266Z" stroke="#EEF8F9" stroke-width="6"/>
<path d="M-663.43 671.868C-723.749 637.042 -744.416 559.912 -709.591 499.593L-493.996 126.172C-459.17 65.8524 -382.04 45.1855 -321.721 80.0109L-30.9505 247.887C29.369 282.713 50.0358 359.843 15.2103 420.162L-200.384 793.583C-235.21 853.903 -312.34 874.569 -372.659 839.744L-663.43 671.868Z" stroke="#EEF8F9" stroke-width="6"/>
<path d="M-649.773 654.469C-710.092 619.643 -730.759 542.513 -695.934 482.194L-480.339 108.773C-445.513 48.4537 -368.383 27.7868 -308.064 62.6123L-17.2934 230.489C43.026 265.314 63.6929 342.444 28.8674 402.764L-186.727 776.184C-221.553 836.504 -298.683 857.171 -359.002 822.345L-649.773 654.469Z" stroke="#EEF8F9" stroke-width="6"/>
<path d="M-636.116 637.07C-696.435 602.245 -717.102 525.115 -682.276 464.795L-466.682 91.3744C-431.856 31.055 -354.726 10.3881 -294.407 45.2135L-3.6363 213.09C56.6831 247.915 77.35 325.045 42.5245 385.365L-173.07 758.786C-207.896 819.105 -285.026 839.772 -345.345 804.947L-636.116 637.07Z" stroke="#EEF8F9" stroke-width="6"/>
<path d="M-622.459 619.671C-682.778 584.846 -703.445 507.716 -668.619 447.397L-453.025 73.9757C-418.199 13.6563 -341.069 -7.01055 -280.75 27.8149L10.0208 195.691C70.3402 230.517 91.0071 307.647 56.1816 367.966L-159.413 741.387C-194.238 801.706 -271.369 822.373 -331.688 787.548L-622.459 619.671Z" stroke="#EEF8F9" stroke-width="6"/>
<path d="M-608.802 602.273C-669.121 567.447 -689.788 490.317 -654.962 429.998L-439.368 56.5771C-404.542 -3.74235 -327.412 -24.4093 -267.093 10.4162L23.6777 178.293C83.9971 213.118 104.664 290.248 69.8385 350.568L-145.756 723.988C-180.582 784.308 -257.712 804.975 -318.031 770.149L-608.802 602.273Z" stroke="#EEF8F9" stroke-width="6"/>
<path d="M-595.145 584.874C-655.464 550.049 -676.131 472.919 -641.305 412.599L-425.711 39.1783C-390.885 -21.1411 -313.755 -41.8079 -253.436 -6.98248L37.3348 160.894C97.6542 195.719 118.321 272.849 83.4956 333.169L-132.099 706.59C-166.924 766.909 -244.055 787.576 -304.374 752.751L-595.145 584.874Z" stroke="#EEF8F9" stroke-width="6"/>
<path d="M-581.487 567.475C-641.807 532.65 -662.474 455.52 -627.648 395.2L-412.054 21.7797C-377.228 -38.5397 -300.098 -59.2066 -239.779 -24.3812L50.9919 143.495C111.311 178.321 131.978 255.451 97.1527 315.77L-118.442 689.191C-153.267 749.51 -230.397 770.177 -290.717 735.352L-581.487 567.475Z" stroke="#EEF8F9" stroke-width="6"/>
<path d="M-567.83 550.077C-628.15 515.251 -648.817 438.121 -613.991 377.802L-398.396 4.38102C-363.571 -55.9384 -286.441 -76.6052 -226.122 -41.7798L64.649 126.097C124.968 160.922 145.635 238.052 110.81 298.372L-104.785 671.792C-139.61 732.112 -216.74 752.779 -277.06 717.953L-567.83 550.077Z" stroke="#EEF8F9" stroke-width="6"/>
<path d="M-554.173 532.678C-614.493 497.853 -635.159 420.723 -600.334 360.403L-384.739 -13.0176C-349.914 -73.337 -272.784 -94.0039 -212.464 -59.1785L78.3061 108.698C138.626 143.523 159.292 220.653 124.467 280.973L-91.1277 654.394C-125.953 714.713 -203.083 735.38 -263.403 700.555L-554.173 532.678Z" stroke="#EEF8F9" stroke-width="6"/>
<path d="M-540.516 515.279C-600.836 480.454 -621.502 403.324 -586.677 343.004L-371.082 -30.4163C-336.257 -90.7358 -259.127 -111.403 -198.807 -76.5772L91.9632 91.2992C152.283 126.125 172.949 203.255 138.124 263.574L-77.4706 636.995C-112.296 697.314 -189.426 717.981 -249.746 683.156L-540.516 515.279Z" stroke="#EEF8F9" stroke-width="6"/>
<path d="M-526.859 497.881C-587.178 463.055 -607.845 385.925 -573.02 325.606L-357.425 -47.815C-322.6 -108.134 -245.47 -128.801 -185.15 -93.9759L105.62 73.9005C165.94 108.726 186.607 185.856 151.781 246.175L-63.8136 619.596C-98.639 679.916 -175.769 700.583 -236.089 665.757L-526.859 497.881Z" stroke="#EEF8F9" stroke-width="6"/>
</svg>
