<svg width="1182" height="381" viewBox="0 0 1182 381" fill="none" xmlns="http://www.w3.org/2000/svg">
<path d="M136.435 389.025C11.7311 461.023 -30.9955 620.482 41.0026 745.186L486.723 1517.2C558.721 1641.9 718.179 1684.63 842.884 1612.63L1444.02 1265.56C1568.73 1193.56 1611.45 1034.1 1539.46 909.4L1093.74 137.39C1021.74 12.6859 862.278 -30.0408 737.574 41.9573L136.435 389.025Z" stroke="#EEF8F9" stroke-width="12"/>
<path d="M164.67 424.995C39.9659 496.993 -2.76075 656.452 69.2373 781.156L514.957 1553.17C586.955 1677.87 746.414 1720.6 871.118 1648.6L1472.26 1301.53C1596.96 1229.53 1639.69 1070.07 1567.69 945.37L1121.97 173.36C1049.97 48.6558 890.513 5.92907 765.809 77.9271L164.67 424.995Z" stroke="#EEF8F9" stroke-width="12"/>
<path d="M192.905 460.965C68.2005 532.963 25.4739 692.422 97.472 817.126L543.192 1589.14C615.19 1713.84 774.649 1756.57 899.353 1684.57L1500.49 1337.5C1625.2 1265.5 1667.92 1106.04 1595.92 981.34L1150.2 209.33C1078.21 84.6258 918.748 41.8992 794.044 113.897L192.905 460.965Z" stroke="#EEF8F9" stroke-width="12"/>
<path d="M221.139 496.935C96.4351 568.933 53.7085 728.392 125.707 853.096L571.427 1625.11C643.425 1749.81 802.883 1792.54 927.588 1720.54L1528.73 1373.47C1653.43 1301.47 1696.16 1142.01 1624.16 1017.31L1178.44 245.3C1106.44 120.596 946.983 77.8692 822.278 149.867L221.139 496.935Z" stroke="#EEF8F9" stroke-width="12"/>
<path d="M249.374 532.905C124.67 604.903 81.9431 764.362 153.941 889.066L599.661 1661.08C671.659 1785.78 831.118 1828.51 955.822 1756.51L1556.96 1409.44C1681.67 1337.44 1724.39 1177.98 1652.39 1053.28L1206.67 281.27C1134.68 156.566 975.217 113.839 850.513 185.837L249.374 532.905Z" stroke="#EEF8F9" stroke-width="12"/>
<path d="M277.609 568.875C152.905 640.873 110.178 800.332 182.176 925.036L627.896 1697.05C699.894 1821.75 859.353 1864.48 984.057 1792.48L1585.2 1445.41C1709.9 1373.41 1752.63 1213.95 1680.63 1089.25L1234.91 317.24C1162.91 192.536 1003.45 149.809 878.748 221.807L277.609 568.875Z" stroke="#EEF8F9" stroke-width="12"/>
<path d="M305.843 604.845C181.139 676.843 138.412 836.302 210.41 961.006L656.131 1733.02C728.129 1857.72 887.587 1900.45 1012.29 1828.45L1613.43 1481.38C1738.13 1409.38 1780.86 1249.92 1708.86 1125.22L1263.14 353.21C1191.15 228.506 1031.69 185.779 906.982 257.777L305.843 604.845Z" stroke="#EEF8F9" stroke-width="12"/>
<path d="M334.078 640.815C209.373 712.813 166.647 872.272 238.645 996.976L684.365 1768.99C756.363 1893.69 915.822 1936.42 1040.53 1864.42L1641.66 1517.35C1766.37 1445.35 1809.1 1285.89 1737.1 1161.19L1291.38 389.18C1219.38 264.476 1059.92 221.749 935.217 293.747L334.078 640.815Z" stroke="#EEF8F9" stroke-width="12"/>
<path d="M362.312 676.785C237.608 748.783 194.881 908.242 266.879 1032.95L712.6 1804.96C784.598 1929.66 944.056 1972.39 1068.76 1900.39L1669.9 1553.32C1794.6 1481.32 1837.33 1321.86 1765.33 1197.16L1319.61 425.15C1247.61 300.446 1088.16 257.719 963.451 329.717L362.312 676.785Z" stroke="#EEF8F9" stroke-width="12"/>
<path d="M390.547 712.755C265.843 784.753 223.116 944.212 295.114 1068.92L740.834 1840.93C812.832 1965.63 972.291 2008.36 1097 1936.36L1698.13 1589.29C1822.84 1517.29 1865.56 1357.83 1793.57 1233.13L1347.85 461.12C1275.85 336.416 1116.39 293.689 991.686 365.688L390.547 712.755Z" stroke="#EEF8F9" stroke-width="12"/>
<path d="M418.782 748.725C294.077 820.723 251.351 980.182 323.349 1104.89L769.069 1876.9C841.067 2001.6 1000.53 2044.33 1125.23 1972.33L1726.37 1625.26C1851.07 1553.26 1893.8 1393.8 1821.8 1269.1L1376.08 497.09C1304.08 372.386 1144.62 329.659 1019.92 401.657L418.782 748.725Z" stroke="#EEF8F9" stroke-width="12"/>
<path d="M447.016 784.695C322.312 856.693 279.585 1016.15 351.584 1140.86L797.304 1912.87C869.302 2037.57 1028.76 2080.3 1153.46 2008.3L1754.6 1661.23C1879.31 1589.23 1922.03 1429.77 1850.04 1305.07L1404.32 533.06C1332.32 408.356 1172.86 365.629 1048.16 437.627L447.016 784.695Z" stroke="#EEF8F9" stroke-width="12"/>
<path d="M475.251 820.665C350.547 892.663 307.82 1052.12 379.818 1176.83L825.538 1948.84C897.536 2073.54 1056.99 2116.27 1181.7 2044.27L1782.84 1697.2C1907.54 1625.2 1950.27 1465.74 1878.27 1341.04L1432.55 569.03C1360.55 444.326 1201.09 401.599 1076.39 473.597L475.251 820.665Z" stroke="#EEF8F9" stroke-width="12"/>
<path d="M503.486 856.635C378.781 928.633 336.055 1088.09 408.053 1212.8L853.773 1984.81C925.771 2109.51 1085.23 2152.24 1209.93 2080.24L1811.07 1733.17C1935.78 1661.17 1978.5 1501.71 1906.51 1377.01L1460.79 605C1388.79 480.296 1229.33 437.569 1104.62 509.567L503.486 856.635Z" stroke="#EEF8F9" stroke-width="12"/>
</svg>
